<?xml version="1.0" standalone="no"?>
<!DOCTYPE svg PUBLIC "-//W3C//DTD SVG 1.1//EN" "http://www.w3.org/Graphics/SVG/1.1/DTD/svg11.dtd" >
<svg xmlns="http://www.w3.org/2000/svg" xmlns:xlink="http://www.w3.org/1999/xlink" version="1.1">
<metadata>
Created by FontForge 20230101 at Sat Jul  3 17:43:08 1999
 By Glenn Lewis
http://fonts.tom7.com/ - One Constant Copyright (c) 1999 Tom Murphy 7. Use as you wish, but never sell this font file (on CD for instance)! twm@andrew.cmu.edu - 339 Still Hill Rd - Hamden CT 06518 - USA. "Let's face it. Without Christopher Robin, we'll n
</metadata>
<defs>
<font id="OneConstant" horiz-adv-x="279" >
  <font-face 
    font-family="One Constant"
    font-weight="400"
    font-stretch="normal"
    units-per-em="1000"
    panose-1="0 0 4 0 0 0 0 0 0 0"
    ascent="800"
    descent="-200"
    x-height="411"
    cap-height="769"
    bbox="-60 -245 913 857"
    underline-thickness="20"
    underline-position="-143"
    unicode-range="U+0020-2026"
  />
<missing-glyph horiz-adv-x="500" 
d="M63 0v800h375v-800h-375zM125 63h250v675h-250v-675z" />
    <glyph glyph-name=".notdef" horiz-adv-x="500" 
d="M63 0v800h375v-800h-375zM125 63h250v675h-250v-675z" />
    <glyph glyph-name=".null" horiz-adv-x="0" 
 />
    <glyph glyph-name="nonmarkingreturn" horiz-adv-x="500" 
 />
    <glyph glyph-name="space" unicode=" " horiz-adv-x="500" 
 />
    <glyph glyph-name="exclam" unicode="!" horiz-adv-x="167" 
d="M156 770q3 -9 1 -20q-5 -20 -5 -21q-2 -16 -7 -59q-18 -142 -26 -268q-11 -176 -14 -206q0 -20 -1 -60q-1 -18 -8 -25q-10 -8 -35 -8q-6 0 -13 9.5t-7 16.5q0 5 6 20t6 20v150q0 -9 8.5 101.5t8.5 178.5q0 21 -4 175q7 10 20 10q20 0 26 -5q18 19 26 17q11 -2 18 -26z
M120 27q0 -13 -18 -32.5t-31 -19.5q-12 0 -25 12.5t-13 21.5q0 29 11.5 39.5t41.5 10.5q34 0 34 -32zM116 662v73h-19q-6 -192 -9 -405q27 357 28 332z" />
    <glyph glyph-name="quotedbl" unicode="&#x22;" 
d="M268 648q0 -10 -22.5 -33t-30.5 -23q-16 0 -16 23q0 7 2.5 23t2.5 22q0 7 -2 8.5t-29 12.5q-18 6 -18 30q0 15 23 32t37 17q15 0 19 -8q10 -22 22 -59t12 -45zM131 646q0 -11 -23 -34t-30 -23q-16 0 -16 23q0 8 2 24t2 21q0 7 -1.5 9t-29.5 12q-18 7 -18 30q0 15 23.5 32
t37.5 17t18 -8q11 -22 23 -59t12 -44zM221 710q-6 10 -16 21q-24 -12 -24 -22q0 -6 2 -8t2 -3q35 12 36 12zM246 638l-6 46l-10 -20l-4 -35zM83 707q-5 10 -16 21q-24 -12 -24 -22q0 -5 2 -7t2 -3q35 11 36 11zM108 635l-6 46l-9 -19l-5 -35z" />
    <glyph glyph-name="numbersign" unicode="#" horiz-adv-x="704" 
d="M683 450q0 -22 -19 -22q-13 0 -175 12q-7 -86 -12 -136q70 -6 100 -4q16 2 33 4q19 0 32 -11t13 -40q0 -23 -19 -23q-12 0 -168 12q-3 -11 -7 -34q-1 -12 -4 -106q-2 -67 -11 -67q-4 0 -11 7.5t-10 8.5q-7 1 -15 2q-11 1 -17 10q0 2 3 13q2 8 -1 11q10 15 11 64
q-1 35 -1 69q1 11 2 20l1 7q-85 7 -140 12q-3 -14 -4 -23q-4 -45 -9 -90q-5 -50 -15 -50q-9 0 -22 17q-10 -1 -32 12q0 1 3 12q2 8 0 12q11 16 14 49t6 67l-2 1q-20 4 -59 11q-38 4 -75.5 9t-37.5 14q0 5 7.5 12t8.5 10l2 14q2 12 10 18q2 0 13 -3q8 -2 11 0q17 -11 36 -13
q28 -3 57 -7q15 -2 36 -4q1 24 3 58q1 22 7 80q-17 4 -50 10l-90 8q-50 6 -50 16q0 4 7.5 11t8.5 10q1 7 2.5 16.5t9.5 15.5q2 0 13 -3q8 -2 11 1q17 -11 145 -24q11 103 8 139q-2 17 -4 33q0 19 11 32t40 13q23 0 23 -19q0 -16 -15 -203q13 -1 29 -1q23 -1 107 -11
q7 70 1 134q-1 17 -3 33q0 19 10.5 32t40.5 13q22 0 22 -19q0 -86 -9 -199q79 -8 111 -5q16 1 33 3q19 0 30 -9q15 -12 15 -42zM468 505q4 65 -2 182q-2 -38 -8 -123q1 -21 0 -58zM648 465q-37 2 -123 8q-15 1 -33 3v-9q90 -5 156 -2zM273 709q-1 -38 -7 -123l-7 -63h10
q9 109 4 186zM429 485q-49 7 -135 13l-1 -12q77 -9 135 -14zM462 442l-13 1q-6 -40 -12 -135l11 -1q9 78 14 135zM620 268q-37 1 -122 7q-12 1 -24 3l-1 -9q84 -5 147 -1zM424 445q-81 7 -133 12q-7 -87 -12 -134l18 -1q22 -1 117 -11q1 19 2 46q1 23 8 88zM230 503
q-68 4 -129 6l128 -16zM264 460l-14 1q-5 -40 -12 -135l11 -1q10 78 15 135zM412 286q-57 8 -136 14l-1 -5q0 -3 -1 -8q79 -9 137 -13zM440 244l-8 1q3 -55 4 -145zM214 304q-36 3 -113 7q33 -6 112 -16zM242 262h-8q-3 -53 -5 -100z" />
    <glyph glyph-name="dollar" unicode="$" horiz-adv-x="435" 
d="M404 652q0 -3 -7.5 -21t-7.5 -32q0 -7 2 -13q-4 -18 -18 -18l-38 9.5t-50 9.5q-29 0 -57 -15q-34 -19 -34 -51q0 -11 55 -75t55 -90q0 -77 -117 -138q-8 -29 -7 -51q0 -2 6 -50l-57 -22q-2 12 1 38q3 32 3 31q0 7 -3 20q-5 18 -11 18q-5 0 -43.5 -19t-43.5 -19
q-6 0 -12 8.5t-6 16.5q0 -4 14 42q-1 10 -1 26q8 14 16 14q5 0 17 -4t17 -4q45 0 91 21q56 25 56 63q0 10 -52 65q-56 60 -57 62q-9 16 -9 39q0 21 5 35q11 32 41 67q37 43 69 45q8 18 23 113q3 17 20 17q11 0 37 -8.5t26 -16.5q0 -5 -11.5 -40t-11.5 -40v-18q31 -7 61 -7
q4 0 10.5 5.5t10.5 5.5q18 0 18 -19zM365 615q-9 22 -36 22q-5 0 -21 -4t-21 -4q-21 0 -21 21q0 5 13.5 42t13.5 42v21h-19q-5 -37 -17 -108q-4 -21 -23 -21q-5 0 -6 1.5t-6 1.5q-27 0 -58 -50q-28 -44 -28 -68q0 -22 37 -59q57 -59 69.5 -75t12.5 -34q0 -23 -25 -51
t-49 -39q93 40 93 103q0 17 -49 72q-25 28 -50 55q-12 20 -12 38q0 95 160 95q15 0 42 -1zM151 244q-12 -6 -20 -6q1 0 3.5 -3t7.5 -3q9 0 9 12zM124 231l-8 7l-9 -5v-6zM91 227q-4 0 -13 2.5t-13 2.5l-4 -18q4 1 17 8q9 6 13 5z" />
    <glyph glyph-name="percent" unicode="%" horiz-adv-x="409" 
d="M256 578q0 -40 -54 -82q-49 -39 -83 -39q-27 0 -42 25q-14 20 -14 48q0 56 40 110q42 59 96 59q12 0 21 -11.5t9 -22t2 -24.5q25 -58 25 -63zM394 653q0 -10 -10 -22q-16 -20 -24 -35q-58 -110 -88 -189l-28 -64q-20 -46 -27 -79q6 3 35 18q22 12 28 12q42 0 64 -47
q15 -33 15 -66q0 -64 -39 -113q-42 -53 -102 -53q-44 0 -60 24q-15 21 -21 84q-8 -8 -17 -30q-6 -17 -16 -17q-4 0 -22 8t-35 11q9 -1 9 1l-7 6.5t-7 10.5q0 9 136 251q112 200 130 325h19q18 0 40 -8q27 -11 27 -28zM205 585h-25q-12 -15 -26 -41q32 16 51 41zM217 551
q-51 -42 -74 -42q-20 0 -20 28q0 29 46 82q30 4 36 3q-15 5 -18 22v23q-39 -12 -66.5 -54t-27.5 -80q0 -46 30 -46q18 0 52.5 22t41.5 42zM350 641q-4 0 -11 5q-19 -39 -55 -128q-33 -83 -57 -128q-137 -256 -137 -262q0 -15 6 -18q45 79 120 224q42 99 134 307zM338 185
q0 9 -11 35q-14 31 -28 31q-6 0 -8 -2l-3 -5q-15 1 -34 2q-35 -9 -61 -60q-23 -46 -23 -85q0 -60 43 -60q53 0 91 49q34 44 34 95zM312 125q0 -23 -39 -50q-35 -25 -54 -25q-13 0 -23 37q-9 31 -9 53q0 29 23 47.5t52 18.5q21 0 37 -36q13 -29 13 -45zM276 134
q-1 16 -11.5 30t-25.5 14q-13 0 -23 -18t-10 -38q0 -26 15.5 -32t28.5 -1q29 10 26 45z" />
    <glyph glyph-name="ampersand" unicode="&#x26;" horiz-adv-x="337" 
d="M323 631q-5 -8 -11 -13q-41 2 -114 -32q-84 -39 -84 -83q0 -42 22 -62q18 -16 55 -22q34 -5 68 -9q0 -1 2 -8t2 -9q-49 -14 -106 -54q-68 -48 -68 -85q0 -39 41 -63q4 -2 42 -6q13 -6 36 -15l33 -3q15 -12 15 -21q0 -13 -31 -16q-21 -1 -41 -1q-12 -8 -12 -26
q0 -8 2.5 -23t2.5 -19v-16q-6 0 -24.5 1.5t-27.5 1.5q-1 5 -1 11q0 11 5 36t6 36q-61 27 -78 40q-29 24 -29 62q0 45 51 98q37 39 81 64l-74 32q-44 21 -44 64q0 32 52 72q56 42 57 46q5 36 17 113q5 2 20 2q23 0 36 -12q-7 -23 -27 -78q30 8 60 22q17 8 38 8q16 0 22 -14
q3 -9 6 -19zM302 649q-12 -4 -38 -8q-50 -8 -87 -33q7 16 13.5 55t10.5 45l-16 -2q-12 -30 -26 -111q-37 -27 -65 -58q-30 -35 -30 -57q0 -18 16.5 -27t32.5 -17q-17 40 -17 75q0 14 78 81q118 41 128 57zM218 153q-19 7 -56 18q-12 0 -32 2q-26 10 -42 34q-14 21 -14 42
q0 37 28 67q14 15 81 66q-35 -11 -84 -60q-53 -53 -53 -89q0 -32 41 -59q36 -23 67 -23q5 0 8.5 3.5t7.5 3.5t11 -5t11 -5q5 0 15 2.5t11 2.5zM158 130q-12 -26 -12 -50q0 -13 9 -18q0 11 1.5 34t1.5 34z" />
    <glyph glyph-name="quotesingle" unicode="'" horiz-adv-x="184" 
d="M169 637q0 -11 -22.5 -34t-30.5 -23q-16 0 -16 23q0 8 2 24t2 21q0 7 -1.5 9t-29.5 12q-18 7 -18 30q0 15 23.5 32t37.5 17t18 -8q11 -22 23 -59t12 -44zM121 698q-5 10 -16 21q-24 -12 -24 -22q0 -5 2 -7t2 -3q35 11 36 11zM146 626l-6 46l-9 -19l-5 -35z" />
    <glyph glyph-name="parenleft" unicode="(" 
d="M260 646q-56 0 -109 -138q-44 -118 -44 -185q0 -56 16 -121q26 -104 78 -104q-2 -1 -2 -3q0 -3 5.5 -16t5.5 -17q0 -3 -2 -3q-34 0 -82 30q-54 33 -66 74q-15 45 -16 82q2 -40 2 66q0 118 19 184q28 95 112 177q7 8 23 10q12 1 32 0l27 -1zM213 656q-51 -23 -92 -106
q-38 -78 -51 -173q-9 -67 0 -125q10 -59 11 -63q8 -32 27 -52q-26 81 -26 179q0 86 39.5 190.5t91.5 149.5z" />
    <glyph glyph-name="parenright" unicode=")" 
d="M260 429q0 -118 -20 -183q-28 -95 -111 -178q-8 -7 -24 -9q-12 -2 -31 -1q-28 1 -27 1l-1 36q56 0 108 138q44 118 44 185q0 56 -16 121q-25 104 -78 104q2 0 2 2q0 4 -5 17t-5 16t2 3q33 0 81 -29q54 -34 67 -74q14 -45 15 -82q-1 40 -1 -67zM235 363q9 69 0 125
q-5 32 -11.5 63.5t-25.5 52.5q25 -81 25 -179q0 -86 -39.5 -191t-91.5 -149q51 23 92 106q38 77 51 172z" />
    <glyph glyph-name="asterisk" unicode="*" horiz-adv-x="264" 
d="M244 651q0 -5 -15 -14q-23 -13 -26 -15q2 -2 16 -17q11 -12 11 -16q0 -7 -11 -21.5t-17 -14.5q-4 0 -17.5 12t-18.5 12q-3 0 -21 -27q-15 4 -36 25q4 9 17 20q-8 0 -23 3q-8 10 -24 27v22h11q8 1 12 1q15 0 23 9q-3 10 -5 30q40 21 46 21q13 0 14 -19v-28q-1 -3 7 -3
q3 0 16.5 10t18.5 10q6 0 14 -10t8 -17zM169 641l-12 33h-5l3 -19z" />
    <glyph glyph-name="plus" unicode="+" horiz-adv-x="584" 
d="M561 380q0 -4 -7.5 -11.5t-9.5 -10.5q-1 -7 -1 -14q-2 -11 -10 -18q-2 0 -13 3q-8 3 -12 0q-16 11 -50 14t-69 7q-27 4 -59 5q-9 -120 -5 -158q1 -16 3 -33q0 -19 -9 -31q-13 -14 -42 -14q-23 0 -23 19q0 75 11 221q-114 9 -154 5q-16 -2 -32 -3q-20 -1 -31 9
q-15 12 -15 42q0 22 19 22q74 0 218 -10q2 13 3 24q5 20 12 59l8 90q6 50 15 50q5 0 12 -8t10 -9q7 -1 16.5 -2t15.5 -10q0 -1 -3 -12q-2 -9 1 -12q-11 -16 -14.5 -50t-6.5 -69q-4 -27 -5 -56q16 -2 28 -4q20 -4 59 -11q45 -4 90 -9q50 -5 50 -15zM319 581l-19 -159l11 -1
q5 68 8 160zM495 370q-59 7 -163 19v-11q69 -5 163 -8zM267 395q-93 7 -199 1q38 -1 123 -7q10 0 60 -4l16 -1v11zM305 356l-11 1q-8 -96 -2 -203q2 37 7 122q1 11 5 61z" />
    <glyph glyph-name="comma" unicode="," horiz-adv-x="184" 
d="M139 -6q0 -11 -22.5 -34t-30.5 -23q-16 0 -16 23q0 8 2 24t2 21q0 7 -1.5 9t-29.5 12q-18 7 -18 30q0 15 23.5 32t37.5 17t18 -8q11 -22 23 -58.5t12 -44.5zM91 55q-5 10 -16 21q-24 -12 -24 -22q0 -5 2 -7t2 -3q35 11 36 11zM116 -17l-6 47l-9 -20l-5 -35z" />
    <glyph glyph-name="hyphen" unicode="-" horiz-adv-x="584" 
d="M561 380q0 -4 -7.5 -11.5t-9.5 -10.5q-1 -7 -1 -14q-2 -11 -10 -18q-2 0 -13 3q-8 3 -12 0q-16 11 -50 14t-69 7q-24 3 -82 6q-18 1 -78 6q-50 4 -80 4q-20 0 -37 -2t-33 -3q-20 -1 -31 9q-15 12 -15 42q0 22 19 22q27 0 123 -5q128 -6 187 -14q20 -4 59 -11q45 -4 90 -9
q50 -5 50 -15zM495 370q-242 29 -332 29q-43 0 -95 -3q38 -1 123 -7q10 0 60 -4q110 -10 244 -15z" />
    <glyph glyph-name="hyphen" unicode="&#x2010;" horiz-adv-x="584" 
d="M561 380q0 -4 -7.5 -11.5t-9.5 -10.5q-1 -7 -1 -14q-2 -11 -10 -18q-2 0 -13 3q-8 3 -12 0q-16 11 -50 14t-69 7q-24 3 -82 6q-18 1 -78 6q-50 4 -80 4q-20 0 -37 -2t-33 -3q-20 -1 -31 9q-15 12 -15 42q0 22 19 22q27 0 123 -5q128 -6 187 -14q20 -4 59 -11q45 -4 90 -9
q50 -5 50 -15zM495 370q-242 29 -332 29q-43 0 -95 -3q38 -1 123 -7q10 0 60 -4q110 -10 244 -15z" />
    <glyph glyph-name="hyphen" unicode="&#x2010;" horiz-adv-x="584" 
d="M561 380q0 -4 -7.5 -11.5t-9.5 -10.5q-1 -7 -1 -14q-2 -11 -10 -18q-2 0 -13 3q-8 3 -12 0q-16 11 -50 14t-69 7q-24 3 -82 6q-18 1 -78 6q-50 4 -80 4q-20 0 -37 -2t-33 -3q-20 -1 -31 9q-15 12 -15 42q0 22 19 22q27 0 123 -5q128 -6 187 -14q20 -4 59 -11q45 -4 90 -9
q50 -5 50 -15zM495 370q-242 29 -332 29q-43 0 -95 -3q38 -1 123 -7q10 0 60 -4q110 -10 244 -15z" />
    <glyph glyph-name="period" unicode="." horiz-adv-x="164" 
d="M130 102q0 -23 -16.5 -39.5t-40.5 -16.5q-33 0 -33 29q0 27 17 43q15 13 47 13q26 0 26 -29z" />
    <glyph glyph-name="slash" unicode="/" horiz-adv-x="472" 
d="M457 679q-1 -1 -8.5 -11t-7.5 -13q-19 -16 -40 -50t-43 -69q-25 -38 -70 -117q-9 -16 -88 -140q-65 -104 -81 -140q-7 -17 -13 -33q-10 -19 -26 -31q-20 -14 -49 -14q-15 0 -15 11q0 4 2 8q7 13 109 182q112 187 151 247q16 20 43 59q28 45 55 90q32 50 42 50q4 0 7.5 -8
t5.5 -9q7 -1 13 -2q11 -1 13 -10zM394 642q-148 -229 -192 -300q-93 -152 -138 -247q21 38 72 123q35 53 94 145q85 138 164 279z" />
    <glyph glyph-name="zero" unicode="0" horiz-adv-x="423" 
d="M399 373q0 -113 -24 -190q-41 -128 -144 -128h-19q-33 0 -84 32q-56 35 -68 76q-15 45 -16 82q2 -40 2 66q0 118 19 184q28 95 112 177q23 24 97 24q9 0 31 -11q26 -12 27 -25q-17 1 -21 -2q23 -13 31 -35q57 -149 57 -250zM377 362q0 55 -14 110q-5 22 -36 117
q3 -21 10 -59q6 -20 12 -50q1 -47 5 -116q4 -61 4 -62q0 -56 -28 -121q-35 -80 -90 -100h13q73 14 105 123q19 69 19 158zM333 317q0 60 -9 167q-2 31 -20 88q-22 74 -44 74q-56 0 -109 -138q-44 -118 -44 -185q0 -56 16 -121q26 -104 78 -104q43 0 94 72q38 52 38 147z
M213 656q-51 -23 -92 -106q-38 -78 -51 -173q-9 -67 0 -125q10 -59 11 -63q8 -32 27 -52q-26 81 -26 179q0 86 39.5 190.5t91.5 149.5z" />
    <glyph glyph-name="one" unicode="1" horiz-adv-x="293" 
d="M252 39q-3 -3 -25 -3q-6 0 -17.5 -1t-16.5 -1l-68 16q-64 15 -84 12q-5 -1 -6 4q-2 5 0 11q2 7 6 10t32 0l36 -4q11 0 11 11l-12 344q-10 232 -18 243q-4 4 -9 4t-17 -7t-15 -7q-27 0 -27 16q0 18 51 32q37 10 56 10q11 0 19 -7q18 -14 8 -40q-1 -3 -9 -14
q8 -176 20 -481q1 -47 7 -110q2 -8 35 -7h41q8 -2 9 -13q0 -11 -7 -18z" />
    <glyph glyph-name="two" unicode="2" horiz-adv-x="507" 
d="M500 379q-1 -47 -33 -105q-25 -47 -44 -62q-41 -35 -132 -101q-21 -9 -41 -18q-32 -14 -46 -36q4 0 16 -3t19 -3q4 0 37 2q24 1 37 -1q79 -11 130 -9q6 0 10.5 -3.5t4.5 -9.5q0 -12 -3 -21.5t-1.5 -21.5t-18.5 -12q-17 0 -72 13q-46 11 -129 19q-64 5 -85 5
q-5 0 -26.5 -9t-26.5 -9q-12 0 -22.5 29t-6.5 40q81 31 115 45q60 25 99.5 49t92.5 104q20 29 20 95q0 51 -17 91q-22 52 -62 45q-11 -2 -42 -21q-98 -61 -126 -203q-5 -11 -21 -11q-5 0 -21.5 14t-22.5 14t-14 -11q-11 -16 -12 -17h-17q0 2 -5 10.5t-5 14.5q0 5 30 37
q35 38 47 57q47 69 72 95q40 43 96 65t83 21q93 -3 132 -99q12 -30 11 -79zM463 379q0 50 -13 75q-21 38 -84 60q15 -13 31 -25q15 -15 18 -32q16 -82 16 -103l-20 -102q52 93 52 127zM153 386q-18 -24 -50 -67q7 -6 18 -6q4 11 15.5 36t16.5 37z" />
    <glyph glyph-name="three" unicode="3" horiz-adv-x="472" 
d="M441 551q0 -72 -30 -118q-51 -63 -101 -125q50 -32 66 -69q13 -29 13 -89q0 -2 -31 -59q-5 -16 -24 -47q-42 -45 -107 -91q-82 -57 -129 -57h-29q-3 0 -41 17q0 18 2 50.5t29 32.5q5 0 12 -5.5t14 -5.5q25 0 79 20q50 18 74 34q21 13 35 57q11 37 11 67q0 39 -6 52
q-10 22 -41 22q-6 0 -32 -12l-45 -20q-38 52 -38 63q0 7 3 11t3 9q53 -7 136 55q88 66 88 132q0 114 -72 177q-64 56 -166 56q-6 0 -35.5 -8t-35.5 -8q-31 0 -31 58q0 42 23 42q11 0 23 -20l160 -12q104 -11 159 -39q15 -8 31.5 -29.5t20.5 -38.5q12 -58 12 -102zM404 546
q0 19 -9 66q-11 52 -20 59q-16 12 -45 24t-39 12h-17q46 -23 73 -67q20 -33 31 -83q7 -35 13 -69q13 43 13 58zM268 275q-14 14 -21 14q-6 0 -20 -14h41zM347 176q0 62 -36 76q18 -74 6 -157q8 25 22 36q8 7 8 45zM163 -37q-28 -6 -83 -17q44 -2 66 4q6 4 17 13z" />
    <glyph glyph-name="four" unicode="4" horiz-adv-x="371" 
d="M366 322q0 -29 -13 -33l-40 -6q-11 -31 -11 -77q0 -21 3 -59t3 -53v-52q0 4 2 -36q1 -24 -2 -45q-2 -9 -17 -9h-25q-15 0 -15 6q2 27 1 64q-1 92 -8 275q-15 11 -42 11q-5 0 -7 -2t-7 -2q-22 0 -97 19q-19 0 -56 2q-13 2 -13 19q0 5 25 42q38 55 42 61.5t34 75.5
q6 13 19 13q12 0 60 -38q-19 -18 -36 -59q-24 -57 -28 -64q23 -17 117 -31q3 19 9 63q8 64 8 175q0 11 -2 83q-1 50 1 74q1 14 25 13q24 9 29 0q8 -12 0 -62q0 -3 -4 -49.5t-4 -67.5q0 -55 -3 -138q-2 -65 -1 -92h35q18 -1 18 -21zM153 478v14q-15 -9 -41 -57
q-31 -56 -46 -73q7 -7 19 -9q4 -1 12 -1q57 114 56 126zM283 35q2 38 0 121q-3 107 -3 124q-2 -21 -9 -80q-5 -49 -5 -54q0 -4 8.5 -53t8.5 -58z" />
    <glyph glyph-name="five" unicode="5" horiz-adv-x="435" 
d="M398 597q-6 -12 -18 -12q-6 0 -16.5 2.5t-14.5 2.5q-53 1 -160 6q-2 -2 -6 -92q-2 -49 -1 -73q1 -20 2 -41t5 -22q59 -8 89 -86q22 -58 22 -122q0 -92 -27.5 -135t-62.5 -79q-33 -32 -67 -64q-27 -27 -137 -58q-39 -12 -47 -12q-5 0 -7.5 2.5t-6.5 2.5q0 3 -2 10
q3 23 1 29q-4 8 -4 5l5 5q0 3 -2 14t-2 16q11 14 18 14q6 0 20.5 -2t20.5 -2q11 0 48 8q44 10 67 22q134 69 134 245q0 41 -18 86q-9 22 -49 44q-34 18 -49 18q-5 0 -6 -4t-7 -4q-7 0 -22 23q4 26 4 54q0 30 -6 79q-6 55 -6 79q1 15 1 46q0 3 -5.5 12.5t-5.5 15.5
q0 21 23 21q6 0 72.5 -4t71.5 -4t40 6t41 6q46 0 70 -22v-36zM146 599q-2 5 -13 14q-11 -10 -11 -61q0 -4 15 -180q9 47 10 115q-1 -99 -1 112zM97 -104q-5 -1 -61 -16q-35 -9 -53 -20h27q8 -1 44 13t43 23z" />
    <glyph glyph-name="six" unicode="6" horiz-adv-x="466" 
d="M449 242q0 -85 -58 -161q-64 -83 -156 -83q-18 0 -53 7q-38 8 -46 15q-49 41 -82 119q-33 74 -33 134q0 38 17 124q13 64 37 120q26 61 100 168q92 132 135 132q9 0 35.5 -26.5t26.5 -35.5q0 -2 -8 -19q-19 0 -60 -41q-31 -31 -53 -61q-31 -41 -61 -82q-39 -58 -41 -91
q28 16 41 19q7 2 33 2q96 0 163 -77q63 -72 63 -163zM287 750q-34 -30 -103 -106q-38 -53 -78 -162q27 48 95 153q30 43 86 115zM413 250q0 42 -13 69q-19 39 -74 80q9 -14 33 -70q28 -68 28 -89q0 -48 -63 -164q37 20 63 74t26 100zM269 432q-41 14 -54 14q-10 0 -41 -15
t-48 -29q-7 -14 -13 -28q-10 -22 -38 -23q-9 -39 -5 -101q18 62 59 116q52 70 112 70q14 0 28 -4zM351 242q0 37 -34 91q-38 61 -76 61q-62 0 -104 -82q-33 -65 -33 -121q0 -39 12 -78q5 -18 44 -46t60 -28q43 0 90 89q41 77 41 114z" />
    <glyph glyph-name="seven" unicode="7" horiz-adv-x="619" 
d="M603 554q0 -7 -55 -59q-64 -60 -79 -79q-125 -162 -357 -466q-109 -144 -125 -144q-12 0 -25.5 14.5t-17.5 33.5q53 50 132 164q103 149 130 181q6 8 291 333q0 5 -33 5q-36 0 -167 -25q-2 0 -13 -8t-17 -8q-17 0 -26 16q-4 9 -1 29q2 15 5 30t20 15q2 0 25.5 -11.5
t70.5 -11.5q6 0 93.5 9t92.5 9q16 0 34 -6q22 -8 22 -21zM452 436q-64 -67 -202 -227q-59 -74 -153 -211q64 73 205 242q56 70 150 196z" />
    <glyph glyph-name="eight" unicode="8" horiz-adv-x="504" 
d="M481 248q0 -56 -43 -120.5t-113 -112.5q-21 -19 -43 -39q-19 -16 -50 -16q-42 0 -86 15q-24 8 -33 12q-15 7 -27 18q-29 25 -51 85q-14 39 -14 81q0 75 29 143q36 85 109 130q-48 34 -48 97q0 46 52 142q49 90 78 109q25 17 37 19h29q58 0 103 -89q37 -75 37 -130
q0 -84 -86 -140q54 -43 87 -99t33 -105zM410 619q0 24 -21 79q-26 70 -57 70h-18q77 -100 77 -159q0 -34 -18 -67q-3 -5 -48 -74q41 11 66 67q19 44 19 84zM365 611q0 39 -19 76q-8 17 -38 52q-22 24 -42 24q-10 0 -19 -7q-21 -18 -38 -98q-14 -67 -14 -112q25 -74 52 -74
h32q30 0 61 61q25 53 25 78zM205 462q-2 8 -24 31q-16 18 -16 57q0 4 9 49t9 58q-5 -8 -15.5 -58.5t-10.5 -66.5q0 -65 48 -70zM455 255q0 30 -40 92q-44 67 -76 67q42 -34 71 -89.5t29 -99.5q0 -2 -2 -19t-2 -22q22 28 22 41q0 2 -1 11.5t-1 18.5zM413 220q0 42 -26 98
q-33 71 -85 95q-7 2 -23 9q-29 11 -24 11q-68 0 -111 -109q-32 -80 -32 -139q0 -35 16 -79q20 -53 51 -77q11 -13 31 -26q71 -6 138 71q65 74 65 146zM171 402q-43 -23 -75 -104q-28 -69 -28 -119t15 -95q21 -61 62 -71q-63 82 -63 168q0 57 27 124t62 97z" />
    <glyph glyph-name="nine" unicode="9" horiz-adv-x="406" 
d="M387 700q0 -3 -6.5 -18.5t-6.5 -24.5q2 -84 2 -251q0 -20 -2.5 -67.5t-2.5 -51.5v-160q0 -112 -9 -121q-4 -4 -26 -3q-20 0 -28 3t-8 43q0 20 2 50.5t2 32.5q-3 168 4 300q-1 0 -55 -16q-50 -16 -67 -16h-39q-80 0 -111 62q-22 43 -22 127q0 81 59 135t135 54
q48 0 82 -14q18 -7 43 -24q19 -14 31 -14q4 0 3 2t4 2q6 0 11 -10.5t5 -19.5zM346 631q0 8 -4.5 25.5t-4.5 21.5q0 19 -18 33q-5 8 -12 17q-41 22 -87 22q-64 0 -118 -41q-61 -46 -61 -116q0 -46 12 -91q16 -58 44 -65q-11 6 -27 47.5t-16 66.5q0 85 38.5 134t127.5 49
q45 0 73 -25q25 -21 53 -78zM324 597q0 14 -13 40.5t-28 35.5q-9 2 -20 6q-5 8 -10 17q-8 10 -29 10q-86 0 -112 -33.5t-26 -121.5q0 -35 16 -71q23 -48 61 -48q40 0 100.5 61t60.5 104zM348 456q0 -4 -8 -35t-8 -35v-142q0 -62 10 -166q0 56 3 246q3 153 1 243
q-17 -32 -91 -122q3 2 39 24q24 15 30 15q8 0 16 -9t8 -19z" />
    <glyph glyph-name="colon" unicode=":" horiz-adv-x="164" 
d="M130 102q0 -23 -16.5 -39.5t-40.5 -16.5q-33 0 -33 29q0 27 17 43q15 13 47 13q26 0 26 -29zM144 405q0 -23 -16.5 -39.5t-40.5 -16.5q-33 0 -33 29q0 27 17 43q15 13 47 13q26 0 26 -29z" />
    <glyph glyph-name="semicolon" unicode=";" horiz-adv-x="184" 
d="M130 414q0 -23 -16.5 -40t-39.5 -17q-33 0 -33 30q0 26 16 41t48 15q25 0 25 -29zM139 -6q0 -11 -22.5 -34t-30.5 -23q-16 0 -16 23q0 8 2 24t2 21q0 7 -1.5 9t-29.5 12q-18 7 -18 30q0 15 23.5 32t37.5 17t18 -8q11 -22 23 -58.5t12 -44.5zM91 55q-5 10 -16 21
q-24 -12 -24 -22q0 -5 2 -7t2 -3q35 11 36 11zM116 -17l-6 47l-9 -20l-5 -35z" />
    <glyph glyph-name="less" unicode="&#x3c;" 
d="M260 646q-56 0 -109 -138q-44 -118 -44 -185q0 -56 16 -121q26 -104 78 -104q-2 -1 -2 -3q0 -3 5.5 -16t5.5 -17q0 -3 -2 -3q-34 0 -82 30q-54 33 -66 74q-15 45 -16 82q2 -40 2 66q0 118 19 184q28 95 112 177q7 8 23 10q12 1 32 0l27 -1zM213 656q-51 -23 -92 -106
q-38 -78 -51 -173q-9 -67 0 -125q10 -59 11 -63q8 -32 27 -52q-26 81 -26 179q0 86 39.5 190.5t91.5 149.5z" />
    <glyph glyph-name="equal" unicode="=" horiz-adv-x="584" 
d="M544 484q0 -4 -7.5 -11.5t-9.5 -10.5q-1 -7 -1 -14q-2 -11 -10 -18q-2 0 -13 3q-8 3 -12 0q-16 11 -50 14t-69 7q-24 3 -82 6q-18 1 -78 6q-50 4 -80 4q-20 0 -37 -2t-33 -3q-20 -1 -31 9q-15 12 -15 42q0 22 19 22q27 0 123 -5q128 -6 187 -14q20 -4 59 -11q45 -4 90 -9
q50 -5 50 -15zM478 474q-242 29 -332 29q-43 0 -95 -3q38 -1 123 -7q10 0 60 -4q110 -10 244 -15zM547 340q0 -4 -7.5 -11.5t-9.5 -10.5q-1 -7 -1 -14q-2 -11 -10 -18q-2 0 -13 3q-8 3 -12 0q-16 11 -50 14t-69 7q-24 3 -82 6q-18 1 -78 6q-50 4 -80 4q-20 0 -37 -2t-33 -3
q-20 -1 -31 9q-15 12 -15 42q0 22 19 22q27 0 123 -5q128 -6 187 -14q20 -4 59 -11q45 -4 90 -9q50 -5 50 -15zM481 330q-242 29 -332 29q-43 0 -95 -3q38 -1 123 -7q10 0 60 -4q110 -10 244 -15z" />
    <glyph glyph-name="greater" unicode="&#x3e;" 
d="M260 429q0 -118 -20 -183q-28 -95 -111 -178q-8 -7 -24 -9q-12 -2 -31 -1q-28 1 -27 1l-1 36q56 0 108 138q44 118 44 185q0 56 -16 121q-25 104 -78 104q2 0 2 2q0 4 -5 17t-5 16t2 3q33 0 81 -29q54 -34 67 -74q14 -45 15 -82q-1 40 -1 -67zM235 363q9 69 0 125
q-5 32 -11.5 63.5t-25.5 52.5q25 -81 25 -179q0 -86 -39.5 -191t-91.5 -149q51 23 92 106q38 77 51 172z" />
    <glyph glyph-name="question" unicode="?" horiz-adv-x="548" 
d="M521 641q0 -56 -17 -88q-8 -13 -27 -27q-28 -19 -35 -26q-91 -85 -256 -77q-9 -67 -22 -200q0 -31 -3 -94q-1 -14 -13 -21q-22 -13 -48 -13q-24 0 -24 16q0 2 17 64q19 68 25 100q22 115 17 180q0 7 4.5 14.5t11.5 7.5q5 0 34.5 -7.5t34.5 -7.5q51 0 101 20q31 12 70 55
q36 38 36 139q0 22 -9 39q-7 12 -54 39t-69 27q-70 0 -181 -61q-14 -8 -31 -31q-20 -27 -16 -45q-6 -9 -18 -9t-23 23q-9 18 -9 24q0 5 2.5 10.5t2.5 8.5q14 0 34 16q31 25 33 26q39 24 120 48q85 25 135 25q54 0 117 -68q60 -64 60 -107zM143 20q0 -18 -17 -38.5t-28 -20.5
q-17 0 -21.5 19.5t-8.5 39.5q4 3 26 9.5t27 6.5q22 0 22 -16zM494 639q0 14 -11 37q-12 27 -28 37q1 -8 4 -38q3 -25 3 -40q0 -22 -5 -39q-7 -24 -28 -52q-15 -19 -29 -38q54 34 74 63t20 70zM133 196q-5 -23 -24 -62h20z" />
    <glyph glyph-name="at" unicode="@" horiz-adv-x="908" 
d="M912 489q0 -112 -48 -255q-54 -167 -139 -251q-8 -7 -24 -9q-12 -2 -31 -1q-28 2 -27 2l-1 35q38 0 91 108q43 86 82 211q35 114 35 149q0 56 -16 121q-25 104 -78 104q2 0 2 2q0 4 -5 17t-5 16t2 3q33 0 81 -29q54 -33 67 -74q14 -45 15 -82q-1 40 -1 -67zM760 578
q0 -22 -16 -22q-21 0 -36 -4t-26 -4q-5 0 -26 4q-25 6 -39 8q-1 -3 -1 -87q0 -38 2 -48q2 -72 4 -152l9 -129q0 -30 -34 -30q-38 0 -38 26q0 6 8 184.5t9 181.5v54q-22 -2 -60.5 -7t-42.5 -5q-14 0 -44 9q-26 32 -26 37v25q14 6 62 4q32 -2 65 -3h46q6 27 6 70q0 119 0 116
q-7 -1 -7 9q0 7 9.5 24.5t14.5 17.5q14 0 17 -13t4 -25q3 -19 -2 -63.5t-3 -129.5q0 -3 11.5 -8.5t17 -5.5t29 -2l23.5 -2q4 0 16.5 8t17.5 8q14 0 22 -15.5t8 -30.5zM551 -15q0 -18 -18 -18h-26q-27 0 -27 20q-31 115 -96 397q-2 0 -4.5 2t-7.5 2q-21 0 -100 -12
q-11 -17 -18.5 -68t-18.5 -67h-11q-16 0 -31 7.5t-15 20.5q0 8 47 172.5t45 216.5q1 0 4 2t8 2q13 0 19 -29q10 4 10 18q0 9 -1 18q2 0 7.5 2t10.5 2q6 0 18 -10t14 -17q24 -118 51 -185q15 7 20 7q18 0 18 -18q0 -15 -5 -32q-2 -5 -9.5 -17t-7.5 -17q0 -4 17 -59
q20 -65 25 -85q40 -152 69 -234q1 -4 7 -10.5t6 -10.5zM285 786q-56 0 -134 -204q-71 -184 -71 -251q0 -56 16 -121q26 -104 78 -104q-1 -1 -1 -3q0 -3 5 -16t5 -17q0 -2 -2 -2q-33 0 -81 29q-54 33 -67 74q-14 45 -15 82q1 -40 1 66q0 113 45 250q53 160 138 243q7 7 24 10
q11 1 31 0l27 -1zM884 562q-5 28 -11 56t-23 46q25 -81 25 -179q0 -86 -67.5 -263t-119.5 -222q45 20 70 66q21 48 41 95q93 203 93 337q0 22 -8 64zM555 592l-92 -2q21 -10 46 -10q12 0 46 12zM368 451q-5 24 -18.5 73t-19.5 72q-12 -18 -27 -75l-22 -96h12q27 9 75 26z
M597 206q0 35 -8 97l1 -128h7v31zM290 596q-10 -36 -49 -181q-30 -109 -30 -114v-19q7 3 13 6q25 110 66 308zM238 795q-55 -24 -117 -150q-65 -132 -77 -260q-7 -77 0 -124q9 -60 10 -64q8 -32 27 -52q-26 81 -26 179q0 86 65.5 256.5t117.5 214.5z" />
    <glyph glyph-name="A" unicode="A" horiz-adv-x="486" 
d="M496 -100q0 -17 -23 -30q-19 -10 -36 -10q-16 0 -25 12q0 43 -59 220q-11 37 -35 111q-32 15 -42 15q-33 0 -140 -28q-21 -38 -13 -76q-3 -10 -19 -23q-7 0 -26 -3t-26 -3q-13 0 -22.5 11t-9.5 18q0 6 11.5 24t13.5 25q22 88 74 267q18 56 36 113q24 70 48 124h28
q5 0 6 -6q0 -4 -1.5 -13.5t-1.5 -13.5q40 -14 49 -46q3 -28 7 -56q68 -273 150 -497q5 -15 33 -77q23 -51 23 -58zM303 289q-19 86 -61 234q-9 -15 -45 -106q-38 -96 -38 -111v-23q18 -6 56 -6q40 0 88 12zM172 492l-98 -344q14 34 44 112q27 82 54 232z" />
    <glyph glyph-name="B" unicode="B" horiz-adv-x="530" 
d="M517 621q0 -33 -18 -82.5t-18 -50.5q0 -24 -26 -55q-23 -27 -45 -54q-27 -31 -60 -53q65 -50 65 -92q0 -39 -30 -101q-28 -57 -61 -93q-16 0 -62 -7q-52 -9 -75 -11q-10 0 -35 -9t-38 -9q-22 107 -41 376q-17 245 -43 340q18 34 102 51q61 13 126 13q97 0 167 -33
q92 -43 92 -130zM456 607q0 42 -45 85q-39 39 -135 39q-60 0 -115 -18l36 -632q15 0 30 -6.5t19 -6.5q47 0 70 57q16 38 16 76q0 32 -25 60q-21 24 -43 30l-42 2q-32 4 -32 30q0 23 22 33q8 4 49 15q34 9 46 19q86 70 108 97q41 51 41 120zM153 86v104q1 7 -8 80
q-11 86 -13 115q-4 70 -7 139q-10 117 -35 183v-32q0 -5 16 -168q18 -185 22 -266q6 -93 25 -155z" />
    <glyph glyph-name="C" unicode="C" horiz-adv-x="440" 
d="M426 604q0 -13 -13.5 -39t-21.5 -26q-4 0 -36 8q-36 9 -51 12q-11 1 -75 1q-49 0 -86 -96q-28 -74 -28 -113q0 -144 162 -144q5 0 13 2.5t12 2.5q21 0 21 -42q0 -13 -9 -23t-16 -10q-26 0 -69 14q-11 3 -44 19q-37 18 -48 26q-38 29 -67.5 82.5t-29.5 92.5q0 5 8 36
q9 38 12 52q15 85 100 148q76 57 146 57q26 0 69 -17q51 -20 51 -43zM389 604q-38 27 -81 27q-95 0 -163.5 -80.5t-64.5 -189.5q-3 63 39 141q52 95 131 95q2 0 48 -6q50 -7 86 -10q0 18 5 23z" />
    <glyph glyph-name="D" unicode="D" horiz-adv-x="420" 
d="M390 407q0 -128 -174 -305l-34 -53q-5 -5 -14 -5q-11 0 -33 41q-4 0 -8 -4t-11 -4q-18 0 -19 18q-17 179 -21 215q-13 124 -32 237q-1 6 -10 18.5t-9 17.5q0 8 12 18.5t19 10.5q-9 0 88 -11q130 -16 183 -52q63 -44 63 -142zM374 430q-3 21 -20 49q-11 15 -21 29v-14
q31 -59 31 -88q0 -17 -5 -44q-4 -20 -2 -21q22 57 17 89zM328 400q0 26 -1 36q-8 54 -43 95q-10 12 -43 22q-24 6 -47 12q-20 -2 -68 1l-5 -12q0 -11 22 -167q24 -171 41 -264q144 104 144 277zM144 89q2 5 -2 29q-4 29 -4 30q0 31 -23 195q-24 176 -39 227v-26
q-2 -17 54 -428q2 -18 14 -27z" />
    <glyph glyph-name="E" unicode="E" horiz-adv-x="501" 
d="M521 749q0 -9 -7.5 -17.5t-15.5 -10.5q-135 -22 -388 -129q7 -85 25 -258q7 0 40 10q30 9 43 6q17 -4 17 -25q0 -8 -6 -10q-28 -8 -83 -25q4 -12 15 -66q9 -43 14 -46q5 -2 133 52q125 54 134 47q6 -5 12 -40q5 -29 5 -43q0 -8 -11.5 -19.5t-19.5 -11.5q-6 0 -13 5t-13 5
q-23 0 -145 -39t-118 -39q-27 0 -34 28q-3 10 -2 28q2 19 0 30q-15 54 -37 156q-27 177 -55 244q-7 19 0 23q48 27 258 99q201 69 214 69q24 8 33 0q5 -6 5 -23zM405 216q5 2 0 14q-61 -21 -167 -60q98 15 167 46z" />
    <glyph glyph-name="F" unicode="F" horiz-adv-x="423" 
d="M408 695q-15 -14 -19 -14q-163 0 -298 -57q1 -50 1 -185q12 -7 14 -6q16 2 34 2q5 0 9.5 2.5t10.5 2.5q4 0 24 -20q-5 -8 -15.5 -16t-15.5 -8t-21.5 -1t-23.5 -1q-4 -5 -4 -33q0 1 26 -183q-19 -3 -24 -30t-24 -27q-14 0 -25 19q-10 16 -10 32v219q0 6 -9 133t-9 132
q0 42 31 42q5 0 16.5 -2t16.5 -2q6 0 115 15.5t115 15.5h28q6 0 17 2t16 2q10 0 24 -14v-20zM94 174q0 30 -4 97q-5 53 -19 145l9 -257z" />
    <glyph glyph-name="G" unicode="G" horiz-adv-x="501" 
d="M530 -137q0 -16 -19.5 -43t-35.5 -27q-29 0 -41 122q-7 69 -7 148q-2 0 -3 2.5t-8 2.5q-5 0 -33 -15q-32 -16 -47 -20q-25 -7 -97 -7q-79 0 -42 -1q-20 0 -70 13q-6 8 -17 23q-21 20 -55 60q-14 21 -24 93q-9 61 -9 97q0 101 63 213q79 139 198 139q49 0 74 -12
q12 -6 22.5 -24t10.5 -28q0 -9 -9.5 -16.5t-19.5 -7.5q-69 47 -98 47q-35 0 -82.5 -50t-53.5 -88q-17 -105 -17 -124q0 -24 11 -91q13 -76 13 -79q5 -52 19 -98q2 -10 27 -18q22 -6 39 -6q12 0 56 8q51 10 70 18q15 8 37 28t34 26q-4 25 -20 86q-24 -6 -62 -29.5t-40 -23.5
q-7 0 -10 3t-8 3q0 5 -2.5 20t-2.5 21q0 9 5 23t12 16q50 12 152 39q6 -6 15 -17q9 -117 11 -132q7 -76 18 -138q5 -26 26 -91q20 -60 20 -65zM98 135q-9 41 -18 106l-14 106q0 -11 -4 -35.5t-4 -28.5q0 -108 40 -148z" />
    <glyph glyph-name="H" unicode="H" horiz-adv-x="357" 
d="M331 492q0 -7 -7 -16q-8 -85 -10 -162q-1 -42 -11 -156q-11 -108 -10 -165q-3 -10 -35 -21q-4 -3 -8 -6.5t-10 -3.5q-23 0 -23 22q0 4 5 19t5 21q3 25 23 299q-1 1 -7 5q-39 9 -93 9q-4 0 -18 -1.5t-22 -1.5q11 -66 30 -200q2 -9 9.5 -34.5t7.5 -29.5v-17q-2 0 -5 -2.5
t-8 -2.5q-22 0 -50 10q-22 137 -57 411q-8 96 -8 157q0 19 19 19q11 0 26 -13t15 -21q0 -5 -7.5 -14t-7.5 -13q0 -10 11 -82q12 -81 22 -126h127q15 1 24 57q5 38 10 77q12 10 25 10q38 0 38 -28zM300 473q0 3 -13 17q-3 -51 -7 -130q-5 -68 -18 -205q-11 -117 -10 -120v-35
l18 113q14 68 14 88l5 133q0 4 5.5 69t5.5 70zM132 96q0 4 -28 148q-34 166 -44 231v-24q-1 -10 58 -361z" />
    <glyph glyph-name="I" unicode="I" horiz-adv-x="149" 
d="M93 747q0 -12 -11.5 -23.5t-18.5 -11.5q-11 0 -17.5 11t-6.5 16q0 10 7 20t17 10q13 0 21.5 -8t8.5 -14zM126 637q0 -16 -6 -46q-8 -36 -9 -53q3 -20 5 -60q-1 -45 -7 -138l-6 -88l4.5 -32.5t4.5 -48.5q-1 -27 1.5 -35.5t2.5 -11.5q0 -5 -21 -18.5t-27 -13.5
q-7 0 -16 10.5t-9 15.5q6 54 9 134q4 92 1 193q-3 40 -7 120q-1 13 -5 44q0 3 -4.5 11.5t-4.5 12.5q0 15 19 15q10 0 18 2t11 2q10 0 46 -15zM96 588v29l-10 1.5t-20 1.5v-48q0 2 5 -141q4 -148 4 -228q0 -48 -1 -74q14 17 14 47q0 10 -2.5 30t-1.5 29q1 86 1 85q4 58 3 185
q-2 31 3 56.5t5 26.5z" />
    <glyph glyph-name="J" unicode="J" horiz-adv-x="420" 
d="M406 642q0 -46 -38 -46q-14 0 -26 9t-12 22q0 15 13 35.5t27 20.5t25 -15t11 -26zM396 504q-5 -35 -17 -99q-29 -109 -57 -218q-35 -127 -63 -196l-18 -50q-14 -33 -31 -53q-15 -16 -44.5 -31.5t-52.5 -19.5q-80 -11 -112 -11q-7 0 -12.5 3t-10.5 3q0 1 -2.5 8t-2.5 14
t5 19q7 16 8 18q1 3 -5 19q16 23 32 23q7 0 17 -2.5t16 -2.5q103 0 165 123q31 60 66.5 203.5t40.5 242.5q0 8 8 20.5t16 12.5q7 0 27 -12t27 -14zM221 -1q-23 -53 -60 -76q-22 -14 -67.5 -23t-64.5 -22h63q42 -1 82 40q37 38 47 81z" />
    <glyph glyph-name="K" unicode="K" horiz-adv-x="322" 
d="M84 406v0q5 0 54 63q55 69 73 108q12 6 18 6q21 0 21 -22q0 -5 -12 -17l-16 -18q-91 -119 -91 -122q0 -22 92 -135t92 -119q0 -7 -20 -27t-27 -20q-12 0 -18 11.5t-11 22.5q-21 28 -63 91l-38 72q-25 46 -47 63q3 -43 16 -131q1 -6 8 -25.5t7 -23.5q0 -21 -19 -21h-22
q-8 0 -18 14q-3 90 -12 193q-12 132 -24 263q-1 2 -10 57q-2 9 -2 12q0 7 6.5 15t14.5 8q6 0 15 -8.5t9 -16.5q8 -94 24 -293zM238 223q-30 28 -70 69q13 -24 89 -124q13 -18 14 -18h2q-8 24 -35 73z" />
    <glyph glyph-name="L" unicode="L" horiz-adv-x="325" 
d="M293 72q-16 -17 -25 -17q-5 0 -18.5 4t-29.5 4q-1 0 -8 1q-24 13 -81 12q-74 0 -86 1q-17 11 -17 24q0 1 23 103q26 113 35 166q26 153 38 266q3 4 8 11q-2 6 2.5 18t14.5 12q22 0 22 -22q0 3 -10.5 -83.5t-11.5 -134.5q-2 -41 -5 -122q-9 -65 -17 -139v-62q86 5 166 -28
v-14zM122 370v14q-22 -91 -58 -260q4 -4 26 -5q7 25 20 130t12 121z" />
    <glyph glyph-name="M" unicode="M" horiz-adv-x="607" 
d="M578 22q0 -8 -10 -16t-19 -8q-41 0 -47 16.5t-10 56.5q-3 47 -7 62q-47 193 -82 472q-7 -77 -14 -154.5t-30 -211.5q-3 -15 8 -81l-7 -15q-67 -16 -73 -16t-20.5 -2.5t-21.5 -2.5t-15.5 11.5t-9.5 19.5q-9 80 -66 275q-27 -81 -27 -197q0 -41 5 -74q-29 -6 -74 -6
q-9 0 -17.5 12t-8.5 19q0 6 7 48q9 50 10 62q8 61 8 191q0 6 11.5 17t14.5 18q1 12 3 33q8 11 23 11q6 0 38 -14.5t38 -14.5h17.5h20.5q6 -21 22 -129q13 -91 43 -143q22 80 38 199q20 143 18 258q3 8 12.5 17t17.5 9q32 0 67 -15q30 -215 75 -465q8 -42 36 -145
q26 -94 26 -97zM362 471q-6 -37 -23 -119q-6 -27 -17 -75l15 -2zM270 184q-14 48 -36 128q-11 51 -21 103q-15 63 -37 85v-16q0 -8 37 -136q40 -134 57 -164zM123 459v40q-8 0 -22 -7q-10 -69 -10 -133q0 -21 -8 -74t-7 -56v-34h18q-1 57 11 173q2 16 10 53q8 34 8 38z" />
    <glyph glyph-name="N" unicode="N" horiz-adv-x="605" 
d="M587 787q0 -5 -19 -46q-21 -46 -26 -66q-74 -317 -100 -470q-1 -6 -10 -16.5t-19 -10.5q-1 0 -16 6.5t-59 10.5q-18 39 -51 136q-51 149 -56 163q-7 0 -8 -2.5t-3 -6.5q-13 -58 -28 -157q-5 -33 -25 -109q-21 -85 -28 -121q-6 -51 -19 -159q-14 -11 -43 -11q-41 0 -41 23
q0 3 35 205q42 237 63 372q11 72 26 97q4 8 17 20t19 12t20.5 -5t20.5 -5q7 0 31 5t30 5q5 0 14.5 -13.5t10.5 -19.5q15 -212 54 -309l7 -5q11 70 43 198q16 44 26 137q9 86 23 116q23 49 80 49q10 0 20.5 -7t10.5 -16zM530 759l-15 -12l-75 -389zM309 400q-9 63 -18 127
q-13 84 -23 84q-6 0 -23.5 -4t-24.5 -5q34 -33 55 -98zM190 534h-8l-56 -304h8zM129 209v19h-9v-19h9zM124 184v24h-9v-24h9z" />
    <glyph glyph-name="O" unicode="O" horiz-adv-x="362" 
d="M143 148q-10 0 -28 6q-49 19 -76 67q-24 43 -24 97q0 59 37 136q48 97 118 97q76 0 145 -85q29 -34 29 -108q0 -73 -64.5 -141.5t-136.5 -68.5zM313 366q0 122 -150 152l-9 -11q79 -40 108 -111q18 -42 23 -126q28 43 28 96zM246 301q0 51 -22 98q-30 64 -85 64
q-5 0 -8.5 -2t-8.5 -2t-7 4t-8 4q-26 0 -59 -136q0 -44 31 -91q35 -54 81 -54q42 0 67 44q19 35 19 71z" />
    <glyph glyph-name="P" unicode="P" horiz-adv-x="342" 
d="M325 613q0 -68 -48 -159q-55 -104 -121 -113q-6 -1 -24 -8.5t-23 -7.5q-7 0 -11 2.5t-6 2.5q-7 -7 -7 -11q0 -3 7 -124q7 -134 10 -199q-7 0 -26.5 -2.5t-24.5 -2.5q-25 0 -25 30q0 12 4 30t4 20v312q0 -28 -21 350h24q20 -21 37 -21q5 0 40.5 4t41.5 4q64 0 113 -25
q56 -31 56 -82zM295 613q0 26 -20 47q4 -14 4 -33q0 -46 -24 -115q-22 -62 -53 -113q33 27 64 103q29 70 29 111zM252 619q0 33 -18 43q-12 7 -48 7q-81 0 -106 -14q-10 -5 -12 -34v-70q0 15 19 -177q3 0 10.5 -5t13.5 -5q48 0 98 116q43 99 43 139zM75 34q1 66 -1 103
q-4 44 -17 120q-2 -93 5 -146q4 -28 13 -77z" />
    <glyph glyph-name="Q" unicode="Q" horiz-adv-x="484" 
d="M466 401q0 -61 -37 -115q-43 -64 -118 -83q21 -55 70 -174q4 -9 20 -30q13 -19 13 -22q0 -8 -14 -18q-9 -3 -33 -15t-30 -12q-12 0 -30 66q-10 40 -20 81q-6 29 -13 57q-8 34 -22 56q-104 0 -168 84q-56 72 -56 164q0 26 6 69q7 57 43 113q43 67 107 91q38 14 75 14
q75 0 131 -79q45 -63 57 -139q19 -113 19 -108zM440 408q0 70 -37 154q-43 99 -107 125l-14 -15q7 -5 40 -18q24 -9 35 -26q21 -33 40.5 -100.5t19.5 -105.5q0 -45 -23.5 -99t-58.5 -81q55 20 83 72q22 42 22 94zM391 413q0 47 -20 117q-24 79 -52 91q-7 2 -31 20
q-18 14 -35 14q-8 0 -18 -2q-13 -4 -18 -5q-74 -10 -106 -115q-18 -61 -18 -127q0 -68 31 -121q8 -14 42 -33.5t45 -19.5h31q-6 22 -11 40q27 29 33 29q16 0 23 -20q4 -14 8 -27q43 7 73 72q23 51 23 87zM96 575q-38 -75 -38 -133q0 -6 3.5 -21.5t3.5 -21.5q-6 91 31 176z
M367 -21v15q-23 57 -68 165v-14q0 -4 14 -62q6 -30 13 -61q14 -47 28 -47q6 0 8.5 2t4.5 2z" />
    <glyph glyph-name="R" unicode="R" horiz-adv-x="443" 
d="M416 621q0 -36 -50 -94.5t-94 -78.5q4 -18 66 -139q59 -114 59 -140q0 -12 -19 -42t-24 -30q-19 0 -48 83q-25 77 -51 154q-33 83 -62 83q-9 0 -63 -23q-10 -277 3 -348q-5 -5 -39 -15.5t-44 -10.5q-19 0 -22 24q0 19 30 338q7 48 16 129q11 91 13 202q21 15 47 15
q6 0 13 -7t13 -7t19 5t19 5q40 0 121 -30q97 -36 97 -73zM378 616q0 9 -13 21q-2 -12 -7 -38t-8 -38q28 36 28 55zM325 618q0 26 -37 45q-33 17 -68 17q-5 0 -32 -2.5t-39 -2.5q2 -58 -8 -105q-12 -51 -12 -89v-30h17q72 17 121 55q58 47 58 112zM357 159v27q1 15 -27 70
q-26 51 -38 66v-16q0 -9 24 -63t41 -84zM99 64l-6 8q-4 50 -4 101q0 43 4.5 120.5t4.5 119.5q-27 -227 -26 -243v-106h27z" />
    <glyph glyph-name="S" unicode="S" horiz-adv-x="374" 
d="M377 548q0 -18 -17 -18q-4 0 -27 9t-27 9q-41 0 -91 -48.5t-50 -90.5q0 -17 29 -101t29 -120q0 -26 -12 -52q-17 -36 -63 -73q-9 -8 -48 -30q-49 -27 -64 -27q-6 0 -20 9q-1 7 -7 23.5t-6 21.5t8 12.5t14 7.5q5 0 5 -2t5 -2q32 0 67 30q38 34 43 78q5 50 5 64q0 5 -9 81
t-9 80q0 42 19.5 86.5t51.5 69.5q16 13 50 30q38 19 56 19q27 0 47.5 -19t20.5 -47zM340 576q-19 9 -27 9q-18 0 -59.5 -22t-49.5 -32q21 7 60 26q31 16 43 16q4 0 17 1.5t16 1.5zM198 191q0 13 -21 64q1 -87 -32 -140q-17 -27 -54 -47q-43 -24 -47 -28q61 21 105 61
q49 44 49 90z" />
    <glyph glyph-name="T" unicode="T" horiz-adv-x="400" 
d="M384 499q0 -18 -18 -18q-1 0 -42 -2.5t-63 -2.5q-13 -53 -16 -134q-2 -72 -3 -143q-3 -86 -10 -169l-5.5 -4.5t-11.5 -4.5q-15 0 -32.5 13.5t-17.5 20.5q0 5 16.5 176.5t16.5 175.5l-1 77q-6 0 -29 1.5t-28 1.5q-37 0 -67.5 -9.5t-32.5 -9.5q-10 0 -22 23q-10 19 -10 24
q0 8 12 16q9 6 15 6q5 0 10 -3t9 -4q75 -4 141 -4q9 9 9 34v37q1 23 10 67q2 5 26 6q23 0 28 -3.5t5 -18.5q0 -14 -6 -59t-5 -59q14 0 39.5 2t30.5 2q18 0 35 -11t17 -24zM242 592q0 16 -4 43l-2 -78q-1 -21 -1 -58q8 59 7 93zM221 295l-17 -205q5 7 11 23q11 78 6 182z" />
    <glyph glyph-name="U" unicode="U" horiz-adv-x="509" 
d="M490 398q0 -77 -22 -158q-31 -113 -92 -150q-11 -7 -67.5 -21.5t-69.5 -14.5q-18 0 -72 26q-87 43 -102 103q-10 37 -10 78q0 219 4 262h21q8 -9 43 -27q13 -7 9 -32q0 9 -4 -47q-4 -51 -2 -83q6 -95 8 -105q13 -74 61 -113q5 -4 36.5 -13.5t38.5 -9.5q4 0 17 3.5t18 3.5
q119 0 119 292q0 100 -17 196q-2 8 -12 27t-10 24q0 18 19 18q4 0 17 -4t18 -4t12.5 2t11.5 2q15 0 19 -17q1 -3 4 -90q4 -103 4 -148zM463 455q0 48 -11 103q-1 17 -2 35q-4 22 -22 24q29 -107 25 -275q10 88 10 113zM131 148q-30 46 -30 168q0 16 1 45v43q0 37 -3 57
q-2 15 -13 15q-3 -24 -3 -64q0 -28 1.5 -64.5t1.5 -34.5q0 -9 -1 -31.5t-1 -35.5q0 -80 47 -98z" />
    <glyph glyph-name="V" unicode="V" horiz-adv-x="561" 
d="M554 514q0 -6 -40 -66q-51 -77 -61 -93q-25 -50 -77 -149q-30 -44 -87 -131h-50q-17 60 -58 178q-156 386 -156 405q0 21 16 21q6 0 6 -2.5t6 -2.5q4 0 14 9.5t16 9.5q7 0 22.5 -21t19.5 -37q64 -224 158 -476q42 59 105.5 168.5t102.5 192.5q9 20 33 20q10 0 20 -8
t10 -18zM201 295q-22 74 -81 239q-14 36 -40 98q13 -60 55 -193q20 -54 66 -144z" />
    <glyph glyph-name="W" unicode="W" horiz-adv-x="590" 
d="M577 596q2 -19 -2 -57q-26 -95 -50 -248q-22 -143 -55 -248q-34 -18 -66 -26q-6 3 -15 11q-6 74 -41 305l-8 9q-32 -82 -64 -163q-50 -127 -64 -127q-6 0 -4.5 2.5t-5.5 2.5q-4 0 -12.5 -7.5t-14.5 -7.5q-24 0 -26 27q-15 150 -29 230q-3 20 -31 150q-7 38 -24 110
q-3 14 -22 64q-16 42 -16 49q0 20 23 20q6 0 32 -12.5t33 -12.5q5 0 9.5 2.5t12.5 2.5q28 0 31 -27q21 -149 57 -453q27 59 54 119q33 83 29 130q1 0 9.5 3t14.5 3q15 0 40 -29q21 -25 23 -33q-2 -12 -1 -40q6 -49 46 -148q15 41 31 198q13 135 13 230q12 17 23 17
q6 0 70 -46zM542 567q0 7 -7 10q-10 4 -11 5q-7 -37 -16.5 -127.5t-9.5 -119.5q3 25 24 128q20 99 20 104zM435 110q2 18 -9 41q-6 12 -23 28l20 -96q5 8 12 27zM190 134q-18 208 -18 210q-13 135 -32 246q-3 18 -16 30t-25 11h-16q29 -90 58 -256q32 -180 49 -241z" />
    <glyph glyph-name="X" unicode="X" horiz-adv-x="411" 
d="M402 157q-36 -26 -30 -42h-28q-24 57 -47 114q-31 71 -60 115q-27 -38 -47 -82q-42 -90 -78 -155q-9 -12 -26 -40q-2 -12 -12 -35q-14 -18 -29 -18q-6 0 -10.5 2.5t-7.5 2.5q0 4 -4.5 14.5t-4.5 16.5q0 4 13.5 19t18.5 23q160 300 160 304l-37 83q-17 39 -65 118l-45 72
q0 17 30 17q42 0 78 -18q6 -3 10 -17q3 -10 7 -20.5t29 -81.5q13 -37 37 -72q21 20 41.5 59.5t19.5 60.5q7 10 20 10q58 0 58 -29q0 -5 -36 -54q-48 -64 -57 -79q-5 -7 -24 -17v-12q5 -8 11 -24q5 -32 39 -89q49 -85 51 -90q10 -19 25 -56zM239 440q0 6 -16 31
q-20 31 -25 43q-12 40 -45 113q-10 16 -39 25q40 -79 118 -229q7 7 7 17zM271 344q-2 8 -6 26.5t-6 27.5q-12 0 -12 -12q0 -6 24 -42zM362 174q-4 16 -18 51t-57 87q12 -31 47 -98q9 -15 28 -40z" />
    <glyph glyph-name="Y" unicode="Y" horiz-adv-x="391" 
d="M382 635q0 -10 -5 -24q0 -6 -16 -27q-20 -27 -23 -33q-29 -62 -89 -182q-24 -37 -67 -116q-41 -88 -130 -266q-5 -2 -15 -2q-11 0 -27 16.5t-16 28.5q0 1 101 167.5t101 167.5q0 9 -54 62q-63 63 -70 73q-17 25 -33 50q-24 35 -49 50q-3 16 0 24q3 13 21 18q23 6 29 11
q7 10 27 27q17 -10 32 -41q24 -50 27 -56q47 -74 107 -150q31 62 62 123q50 99 62 99q13 0 19 -5t6 -15zM185 437q-9 28 -54 88l-70 90q0 -2 -6.5 -3.5t-6.5 -5.5q0 -10 63.5 -88.5t73.5 -80.5z" />
    <glyph glyph-name="Z" unicode="Z" horiz-adv-x="544" 
d="M529 350q0 -20 -16 -27q-9 -2 -25 -10q-13 -14 -41 -38q-170 -113 -195 -131q-124 -92 -197 -185q4 -2 63 -2q5 0 66 7.5t66 7.5q34 0 101 -9q20 -3 38 -15q0 5 3 -22q2 -15 -4 -24q-11 -18 -23 -18q6 0 -60 14t-122 14q-35 0 -84 -8q-78 -13 -82.5 -13.5t-19.5 -7.5
t-20 -7q-8 0 -11 5q-1 4 0 10q1 9 1 6q-2 8 -4 25q-2 27 1 30q184 163 291 251q56 42 164 132q-50 -2 -109 -5h-64q0 4 -2 16.5t-2 17.5q0 40 17 41q23 1 171 1l15.5 2.5t27.5 2.5q30 0 42 -14q14 -17 14 -47zM456 372q-11 0 -32.5 3t-24 3t-18 1.5t-27.5 1.5q-16 -1 -28 -4
q-27 -8 -32 -14q59 3 162 9zM349 -69q-36 8 -114 7q43 -7 112 -15z" />
    <glyph glyph-name="bracketleft" unicode="[" 
d="M260 646q-56 0 -109 -138q-44 -118 -44 -185q0 -56 16 -121q26 -104 78 -104q-2 -1 -2 -3q0 -3 5.5 -16t5.5 -17q0 -3 -2 -3q-34 0 -82 30q-54 33 -66 74q-15 45 -16 82q2 -40 2 66q0 118 19 184q28 95 112 177q7 8 23 10q12 1 32 0l27 -1zM213 656q-51 -23 -92 -106
q-38 -78 -51 -173q-9 -67 0 -125q10 -59 11 -63q8 -32 27 -52q-26 81 -26 179q0 86 39.5 190.5t91.5 149.5z" />
    <glyph glyph-name="backslash" unicode="\" horiz-adv-x="364" 
d="M348 56q-5 -15 -34 -17q-22 -1 -33 19q-7 13 -84 182q-85 188 -108 248q-6 20 -20 60q-17 38 -34 77q-20 46 -20 58q0 5 3 6q5 0 16 -7.5t15 -8.5q10 2 38 -11q1 -9 10 -24q-2 -17 13 -51t30 -69q14 -38 53 -118q8 -15 61 -140q44 -104 66 -140q10 -17 21 -33
q10 -19 7 -31zM311 75q-18 37 -58 123q-21 53 -59 146q-61 138 -130 279q94 -230 124 -301q67 -152 123 -247z" />
    <glyph glyph-name="bracketright" unicode="]" 
d="M260 429q0 -118 -20 -183q-28 -95 -111 -178q-8 -7 -24 -9q-12 -2 -31 -1q-28 1 -27 1l-1 36q56 0 108 138q44 118 44 185q0 56 -16 121q-25 104 -78 104q2 0 2 2q0 4 -5 17t-5 16t2 3q33 0 81 -29q54 -34 67 -74q14 -45 15 -82q-1 40 -1 -67zM235 363q9 69 0 125
q-5 32 -11.5 63.5t-25.5 52.5q25 -81 25 -179q0 -86 -39.5 -191t-91.5 -149q51 23 92 106q38 77 51 172z" />
    <glyph glyph-name="asciicircum" unicode="^" horiz-adv-x="305" 
d="M281 693q-9 -24 -13 -35q-6 -23 -7 -43q-1 0 -6 -2.5t-12 -2.5q-6 0 -54.5 37.5t-53.5 37.5q-6 0 -35 -37.5t-34 -37.5q-11 0 -28 16t-17 26q0 7 30 33q36 32 54 64q15 16 30 16q11 0 70 -30q55 -28 76 -42zM233 669q-3 10 -22.5 22.5t-22.5 11.5h-16q27 -21 61 -34z" />
    <glyph glyph-name="underscore" unicode="_" horiz-adv-x="553" 
d="M541 48q0 -4 -7.5 -11.5t-9.5 -10.5q-1 -7 -1 -14q-2 -11 -10 -18q-2 0 -13 3q-8 3 -12 0q-16 11 -50 14t-69 7q-24 3 -82 6q-18 1 -78 6q-50 4 -80 4q-20 0 -37 -2t-33 -3q-20 -1 -31 9q-15 12 -15 42q0 22 19 22q27 0 123 -5q128 -6 187 -14q20 -4 59 -11q45 -4 90 -9
q50 -5 50 -15zM475 38q-242 29 -332 29q-43 0 -95 -3q38 -1 123 -7q10 0 60 -4q110 -10 244 -15z" />
    <glyph glyph-name="grave" unicode="`" horiz-adv-x="233" 
d="M212 602q0 -21 -22 -36q-23 33 -59 63q-21 12 -58 41q-17 18 -16 55v34h19q6 1 119 -58q1 -25 4 -66q0 -3 6.5 -13.5t6.5 -19.5zM166 675l-51 26l34 -31z" />
    <glyph glyph-name="a" unicode="a" horiz-adv-x="486" 
d="M496 -100q0 -17 -23 -30q-19 -10 -36 -10q-16 0 -25 12q0 43 -59 220q-11 37 -35 111q-32 15 -42 15q-33 0 -140 -28q-21 -38 -13 -76q-3 -10 -19 -23q-7 0 -26 -3t-26 -3q-13 0 -22.5 11t-9.5 18q0 6 11.5 24t13.5 25q22 88 74 267q18 56 36 113q24 70 48 124h28
q5 0 6 -6q0 -4 -1.5 -13.5t-1.5 -13.5q40 -14 49 -46q3 -28 7 -56q68 -273 150 -497q5 -15 33 -77q23 -51 23 -58zM303 289q-19 86 -61 234q-9 -15 -45 -106q-38 -96 -38 -111v-23q18 -6 56 -6q40 0 88 12zM172 492l-98 -344q14 34 44 112q27 82 54 232z" />
    <glyph glyph-name="b" unicode="b" horiz-adv-x="530" 
d="M517 621q0 -33 -18 -82.5t-18 -50.5q0 -24 -26 -55q-23 -27 -45 -54q-27 -31 -60 -53q65 -50 65 -92q0 -39 -30 -101q-28 -57 -61 -93q-16 0 -62 -7q-52 -9 -75 -11q-10 0 -35 -9t-38 -9q-22 107 -41 376q-17 245 -43 340q18 34 102 51q61 13 126 13q97 0 167 -33
q92 -43 92 -130zM456 607q0 42 -45 85q-39 39 -135 39q-60 0 -115 -18l36 -632q15 0 30 -6.5t19 -6.5q47 0 70 57q16 38 16 76q0 32 -25 60q-21 24 -43 30l-42 2q-32 4 -32 30q0 23 22 33q8 4 49 15q34 9 46 19q86 70 108 97q41 51 41 120zM153 86v104q1 7 -8 80
q-11 86 -13 115q-4 70 -7 139q-10 117 -35 183v-32q0 -5 16 -168q18 -185 22 -266q6 -93 25 -155z" />
    <glyph glyph-name="c" unicode="c" horiz-adv-x="440" 
d="M426 604q0 -13 -13.5 -39t-21.5 -26q-4 0 -36 8q-36 9 -51 12q-11 1 -75 1q-49 0 -86 -96q-28 -74 -28 -113q0 -144 162 -144q5 0 13 2.5t12 2.5q21 0 21 -42q0 -13 -9 -23t-16 -10q-26 0 -69 14q-11 3 -44 19q-37 18 -48 26q-38 29 -67.5 82.5t-29.5 92.5q0 5 8 36
q9 38 12 52q15 85 100 148q76 57 146 57q26 0 69 -17q51 -20 51 -43zM389 604q-38 27 -81 27q-95 0 -163.5 -80.5t-64.5 -189.5q-3 63 39 141q52 95 131 95q2 0 48 -6q50 -7 86 -10q0 18 5 23z" />
    <glyph glyph-name="d" unicode="d" horiz-adv-x="420" 
d="M390 407q0 -128 -174 -305l-34 -53q-5 -5 -14 -5q-11 0 -33 41q-4 0 -8 -4t-11 -4q-18 0 -19 18q-17 179 -21 215q-13 124 -32 237q-1 6 -10 18.5t-9 17.5q0 8 12 18.5t19 10.5q-9 0 88 -11q130 -16 183 -52q63 -44 63 -142zM374 430q-3 21 -20 49q-11 15 -21 29v-14
q31 -59 31 -88q0 -17 -5 -44q-4 -20 -2 -21q22 57 17 89zM328 400q0 26 -1 36q-8 54 -43 95q-10 12 -43 22q-24 6 -47 12q-20 -2 -68 1l-5 -12q0 -11 22 -167q24 -171 41 -264q144 104 144 277zM144 89q2 5 -2 29q-4 29 -4 30q0 31 -23 195q-24 176 -39 227v-26
q-2 -17 54 -428q2 -18 14 -27z" />
    <glyph glyph-name="e" unicode="e" horiz-adv-x="501" 
d="M521 749q0 -9 -7.5 -17.5t-15.5 -10.5q-135 -22 -388 -129q7 -85 25 -258q7 0 40 10q30 9 43 6q17 -4 17 -25q0 -8 -6 -10q-28 -8 -83 -25q4 -12 15 -66q9 -43 14 -46q5 -2 133 52q125 54 134 47q6 -5 12 -40q5 -29 5 -43q0 -8 -11.5 -19.5t-19.5 -11.5q-6 0 -13 5t-13 5
q-23 0 -145 -39t-118 -39q-27 0 -34 28q-3 10 -2 28q2 19 0 30q-15 54 -37 156q-27 177 -55 244q-7 19 0 23q48 27 258 99q201 69 214 69q24 8 33 0q5 -6 5 -23zM405 216q5 2 0 14q-61 -21 -167 -60q98 15 167 46z" />
    <glyph glyph-name="f" unicode="f" horiz-adv-x="423" 
d="M408 695q-15 -14 -19 -14q-163 0 -298 -57q1 -50 1 -185q12 -7 14 -6q16 2 34 2q5 0 9.5 2.5t10.5 2.5q4 0 24 -20q-5 -8 -15.5 -16t-15.5 -8t-21.5 -1t-23.5 -1q-4 -5 -4 -33q0 1 26 -183q-19 -3 -24 -30t-24 -27q-14 0 -25 19q-10 16 -10 32v219q0 6 -9 133t-9 132
q0 42 31 42q5 0 16.5 -2t16.5 -2q6 0 115 15.5t115 15.5h28q6 0 17 2t16 2q10 0 24 -14v-20zM94 174q0 30 -4 97q-5 53 -19 145l9 -257z" />
    <glyph glyph-name="g" unicode="g" horiz-adv-x="501" 
d="M530 -137q0 -16 -19.5 -43t-35.5 -27q-29 0 -41 122q-7 69 -7 148q-2 0 -3 2.5t-8 2.5q-5 0 -33 -15q-32 -16 -47 -20q-25 -7 -97 -7q-79 0 -42 -1q-20 0 -70 13q-6 8 -17 23q-21 20 -55 60q-14 21 -24 93q-9 61 -9 97q0 101 63 213q79 139 198 139q49 0 74 -12
q12 -6 22.5 -24t10.5 -28q0 -9 -9.5 -16.5t-19.5 -7.5q-69 47 -98 47q-35 0 -82.5 -50t-53.5 -88q-17 -105 -17 -124q0 -24 11 -91q13 -76 13 -79q5 -52 19 -98q2 -10 27 -18q22 -6 39 -6q12 0 56 8q51 10 70 18q15 8 37 28t34 26q-4 25 -20 86q-24 -6 -62 -29.5t-40 -23.5
q-7 0 -10 3t-8 3q0 5 -2.5 20t-2.5 21q0 9 5 23t12 16q50 12 152 39q6 -6 15 -17q9 -117 11 -132q7 -76 18 -138q5 -26 26 -91q20 -60 20 -65zM98 135q-9 41 -18 106l-14 106q0 -11 -4 -35.5t-4 -28.5q0 -108 40 -148z" />
    <glyph glyph-name="h" unicode="h" horiz-adv-x="357" 
d="M331 492q0 -7 -7 -16q-8 -85 -10 -162q-1 -42 -11 -156q-11 -108 -10 -165q-3 -10 -35 -21q-4 -3 -8 -6.5t-10 -3.5q-23 0 -23 22q0 4 5 19t5 21q3 25 23 299q-1 1 -7 5q-39 9 -93 9q-4 0 -18 -1.5t-22 -1.5q11 -66 30 -200q2 -9 9.5 -34.5t7.5 -29.5v-17q-2 0 -5 -2.5
t-8 -2.5q-22 0 -50 10q-22 137 -57 411q-8 96 -8 157q0 19 19 19q11 0 26 -13t15 -21q0 -5 -7.5 -14t-7.5 -13q0 -10 11 -82q12 -81 22 -126h127q15 1 24 57q5 38 10 77q12 10 25 10q38 0 38 -28zM300 473q0 3 -13 17q-3 -51 -7 -130q-5 -68 -18 -205q-11 -117 -10 -120v-35
l18 113q14 68 14 88l5 133q0 4 5.5 69t5.5 70zM132 96q0 4 -28 148q-34 166 -44 231v-24q-1 -10 58 -361z" />
    <glyph glyph-name="i" unicode="i" horiz-adv-x="149" 
d="M93 747q0 -12 -11.5 -23.5t-18.5 -11.5q-11 0 -17.5 11t-6.5 16q0 10 7 20t17 10q13 0 21.5 -8t8.5 -14zM126 637q0 -16 -6 -46q-8 -36 -9 -53q3 -20 5 -60q-1 -45 -7 -138l-6 -88l4.5 -32.5t4.5 -48.5q-1 -27 1.5 -35.5t2.5 -11.5q0 -5 -21 -18.5t-27 -13.5
q-7 0 -16 10.5t-9 15.5q6 54 9 134q4 92 1 193q-3 40 -7 120q-1 13 -5 44q0 3 -4.5 11.5t-4.5 12.5q0 15 19 15q10 0 18 2t11 2q10 0 46 -15zM96 588v29l-10 1.5t-20 1.5v-48q0 2 5 -141q4 -148 4 -228q0 -48 -1 -74q14 17 14 47q0 10 -2.5 30t-1.5 29q1 86 1 85q4 58 3 185
q-2 31 3 56.5t5 26.5z" />
    <glyph glyph-name="j" unicode="j" horiz-adv-x="420" 
d="M406 642q0 -46 -38 -46q-14 0 -26 9t-12 22q0 15 13 35.5t27 20.5t25 -15t11 -26zM396 504q-5 -35 -17 -99q-29 -109 -57 -218q-35 -127 -63 -196l-18 -50q-14 -33 -31 -53q-15 -16 -44.5 -31.5t-52.5 -19.5q-80 -11 -112 -11q-7 0 -12.5 3t-10.5 3q0 1 -2.5 8t-2.5 14
t5 19q7 16 8 18q1 3 -5 19q16 23 32 23q7 0 17 -2.5t16 -2.5q103 0 165 123q31 60 66.5 203.5t40.5 242.5q0 8 8 20.5t16 12.5q7 0 27 -12t27 -14zM221 -1q-23 -53 -60 -76q-22 -14 -67.5 -23t-64.5 -22h63q42 -1 82 40q37 38 47 81z" />
    <glyph glyph-name="k" unicode="k" horiz-adv-x="322" 
d="M84 406v0q5 0 54 63q55 69 73 108q12 6 18 6q21 0 21 -22q0 -5 -12 -17l-16 -18q-91 -119 -91 -122q0 -22 92 -135t92 -119q0 -7 -20 -27t-27 -20q-12 0 -18 11.5t-11 22.5q-21 28 -63 91l-38 72q-25 46 -47 63q3 -43 16 -131q1 -6 8 -25.5t7 -23.5q0 -21 -19 -21h-22
q-8 0 -18 14q-3 90 -12 193q-12 132 -24 263q-1 2 -10 57q-2 9 -2 12q0 7 6.5 15t14.5 8q6 0 15 -8.5t9 -16.5q8 -94 24 -293zM238 223q-30 28 -70 69q13 -24 89 -124q13 -18 14 -18h2q-8 24 -35 73z" />
    <glyph glyph-name="l" unicode="l" horiz-adv-x="325" 
d="M293 72q-16 -17 -25 -17q-5 0 -18.5 4t-29.5 4q-1 0 -8 1q-24 13 -81 12q-74 0 -86 1q-17 11 -17 24q0 1 23 103q26 113 35 166q26 153 38 266q3 4 8 11q-2 6 2.5 18t14.5 12q22 0 22 -22q0 3 -10.5 -83.5t-11.5 -134.5q-2 -41 -5 -122q-9 -65 -17 -139v-62q86 5 166 -28
v-14zM122 370v14q-22 -91 -58 -260q4 -4 26 -5q7 25 20 130t12 121z" />
    <glyph glyph-name="m" unicode="m" horiz-adv-x="607" 
d="M578 22q0 -8 -10 -16t-19 -8q-41 0 -47 16.5t-10 56.5q-3 47 -7 62q-47 193 -82 472q-7 -77 -14 -154.5t-30 -211.5q-3 -15 8 -81l-7 -15q-67 -16 -73 -16t-20.5 -2.5t-21.5 -2.5t-15.5 11.5t-9.5 19.5q-9 80 -66 275q-27 -81 -27 -197q0 -41 5 -74q-29 -6 -74 -6
q-9 0 -17.5 12t-8.5 19q0 6 7 48q9 50 10 62q8 61 8 191q0 6 11.5 17t14.5 18q1 12 3 33q8 11 23 11q6 0 38 -14.5t38 -14.5h17.5h20.5q6 -21 22 -129q13 -91 43 -143q22 80 38 199q20 143 18 258q3 8 12.5 17t17.5 9q32 0 67 -15q30 -215 75 -465q8 -42 36 -145
q26 -94 26 -97zM362 471q-6 -37 -23 -119q-6 -27 -17 -75l15 -2zM270 184q-14 48 -36 128q-11 51 -21 103q-15 63 -37 85v-16q0 -8 37 -136q40 -134 57 -164zM123 459v40q-8 0 -22 -7q-10 -69 -10 -133q0 -21 -8 -74t-7 -56v-34h18q-1 57 11 173q2 16 10 53q8 34 8 38z" />
    <glyph glyph-name="n" unicode="n" horiz-adv-x="605" 
d="M587 787q0 -5 -19 -46q-21 -46 -26 -66q-74 -317 -100 -470q-1 -6 -10 -16.5t-19 -10.5q-1 0 -16 6.5t-59 10.5q-18 39 -51 136q-51 149 -56 163q-7 0 -8 -2.5t-3 -6.5q-13 -58 -28 -157q-5 -33 -25 -109q-21 -85 -28 -121q-6 -51 -19 -159q-14 -11 -43 -11q-41 0 -41 23
q0 3 35 205q42 237 63 372q11 72 26 97q4 8 17 20t19 12t20.5 -5t20.5 -5q7 0 31 5t30 5q5 0 14.5 -13.5t10.5 -19.5q15 -212 54 -309l7 -5q11 70 43 198q16 44 26 137q9 86 23 116q23 49 80 49q10 0 20.5 -7t10.5 -16zM530 759l-15 -12l-75 -389zM309 400q-9 63 -18 127
q-13 84 -23 84q-6 0 -23.5 -4t-24.5 -5q34 -33 55 -98zM190 534h-8l-56 -304h8zM129 209v19h-9v-19h9zM124 184v24h-9v-24h9z" />
    <glyph glyph-name="o" unicode="o" horiz-adv-x="362" 
d="M143 148q-10 0 -28 6q-49 19 -76 67q-24 43 -24 97q0 59 37 136q48 97 118 97q76 0 145 -85q29 -34 29 -108q0 -73 -64.5 -141.5t-136.5 -68.5zM313 366q0 122 -150 152l-9 -11q79 -40 108 -111q18 -42 23 -126q28 43 28 96zM246 301q0 51 -22 98q-30 64 -85 64
q-5 0 -8.5 -2t-8.5 -2t-7 4t-8 4q-26 0 -59 -136q0 -44 31 -91q35 -54 81 -54q42 0 67 44q19 35 19 71z" />
    <glyph glyph-name="p" unicode="p" horiz-adv-x="342" 
d="M325 613q0 -68 -48 -159q-55 -104 -121 -113q-6 -1 -24 -8.5t-23 -7.5q-7 0 -11 2.5t-6 2.5q-7 -7 -7 -11q0 -3 7 -124q7 -134 10 -199q-7 0 -26.5 -2.5t-24.5 -2.5q-25 0 -25 30q0 12 4 30t4 20v312q0 -28 -21 350h24q20 -21 37 -21q5 0 40.5 4t41.5 4q64 0 113 -25
q56 -31 56 -82zM295 613q0 26 -20 47q4 -14 4 -33q0 -46 -24 -115q-22 -62 -53 -113q33 27 64 103q29 70 29 111zM252 619q0 33 -18 43q-12 7 -48 7q-81 0 -106 -14q-10 -5 -12 -34v-70q0 15 19 -177q3 0 10.5 -5t13.5 -5q48 0 98 116q43 99 43 139zM75 34q1 66 -1 103
q-4 44 -17 120q-2 -93 5 -146q4 -28 13 -77z" />
    <glyph glyph-name="q" unicode="q" horiz-adv-x="484" 
d="M466 401q0 -61 -37 -115q-43 -64 -118 -83q21 -55 70 -174q4 -9 20 -30q13 -19 13 -22q0 -8 -14 -18q-9 -3 -33 -15t-30 -12q-12 0 -30 66q-10 40 -20 81q-6 29 -13 57q-8 34 -22 56q-104 0 -168 84q-56 72 -56 164q0 26 6 69q7 57 43 113q43 67 107 91q38 14 75 14
q75 0 131 -79q45 -63 57 -139q19 -113 19 -108zM440 408q0 70 -37 154q-43 99 -107 125l-14 -15q7 -5 40 -18q24 -9 35 -26q21 -33 40.5 -100.5t19.5 -105.5q0 -45 -23.5 -99t-58.5 -81q55 20 83 72q22 42 22 94zM391 413q0 47 -20 117q-24 79 -52 91q-7 2 -31 20
q-18 14 -35 14q-8 0 -18 -2q-13 -4 -18 -5q-74 -10 -106 -115q-18 -61 -18 -127q0 -68 31 -121q8 -14 42 -33.5t45 -19.5h31q-6 22 -11 40q27 29 33 29q16 0 23 -20q4 -14 8 -27q43 7 73 72q23 51 23 87zM96 575q-38 -75 -38 -133q0 -6 3.5 -21.5t3.5 -21.5q-6 91 31 176z
M367 -21v15q-23 57 -68 165v-14q0 -4 14 -62q6 -30 13 -61q14 -47 28 -47q6 0 8.5 2t4.5 2z" />
    <glyph glyph-name="r" unicode="r" horiz-adv-x="443" 
d="M416 621q0 -36 -50 -94.5t-94 -78.5q4 -18 66 -139q59 -114 59 -140q0 -12 -19 -42t-24 -30q-19 0 -48 83q-25 77 -51 154q-33 83 -62 83q-9 0 -63 -23q-10 -277 3 -348q-5 -5 -39 -15.5t-44 -10.5q-19 0 -22 24q0 19 30 338q7 48 16 129q11 91 13 202q21 15 47 15
q6 0 13 -7t13 -7t19 5t19 5q40 0 121 -30q97 -36 97 -73zM378 616q0 9 -13 21q-2 -12 -7 -38t-8 -38q28 36 28 55zM325 618q0 26 -37 45q-33 17 -68 17q-5 0 -32 -2.5t-39 -2.5q2 -58 -8 -105q-12 -51 -12 -89v-30h17q72 17 121 55q58 47 58 112zM357 159v27q1 15 -27 70
q-26 51 -38 66v-16q0 -9 24 -63t41 -84zM99 64l-6 8q-4 50 -4 101q0 43 4.5 120.5t4.5 119.5q-27 -227 -26 -243v-106h27z" />
    <glyph glyph-name="s" unicode="s" horiz-adv-x="374" 
d="M377 548q0 -18 -17 -18q-4 0 -27 9t-27 9q-41 0 -91 -48.5t-50 -90.5q0 -17 29 -101t29 -120q0 -26 -12 -52q-17 -36 -63 -73q-9 -8 -48 -30q-49 -27 -64 -27q-6 0 -20 9q-1 7 -7 23.5t-6 21.5t8 12.5t14 7.5q5 0 5 -2t5 -2q32 0 67 30q38 34 43 78q5 50 5 64q0 5 -9 81
t-9 80q0 42 19.5 86.5t51.5 69.5q16 13 50 30q38 19 56 19q27 0 47.5 -19t20.5 -47zM340 576q-19 9 -27 9q-18 0 -59.5 -22t-49.5 -32q21 7 60 26q31 16 43 16q4 0 17 1.5t16 1.5zM198 191q0 13 -21 64q1 -87 -32 -140q-17 -27 -54 -47q-43 -24 -47 -28q61 21 105 61
q49 44 49 90z" />
    <glyph glyph-name="t" unicode="t" horiz-adv-x="400" 
d="M384 499q0 -18 -18 -18q-1 0 -42 -2.5t-63 -2.5q-13 -53 -16 -134q-2 -72 -3 -143q-3 -86 -10 -169l-5.5 -4.5t-11.5 -4.5q-15 0 -32.5 13.5t-17.5 20.5q0 5 16.5 176.5t16.5 175.5l-1 77q-6 0 -29 1.5t-28 1.5q-37 0 -67.5 -9.5t-32.5 -9.5q-10 0 -22 23q-10 19 -10 24
q0 8 12 16q9 6 15 6q5 0 10 -3t9 -4q75 -4 141 -4q9 9 9 34v37q1 23 10 67q2 5 26 6q23 0 28 -3.5t5 -18.5q0 -14 -6 -59t-5 -59q14 0 39.5 2t30.5 2q18 0 35 -11t17 -24zM242 592q0 16 -4 43l-2 -78q-1 -21 -1 -58q8 59 7 93zM221 295l-17 -205q5 7 11 23q11 78 6 182z" />
    <glyph glyph-name="u" unicode="u" horiz-adv-x="509" 
d="M490 398q0 -77 -22 -158q-31 -113 -92 -150q-11 -7 -67.5 -21.5t-69.5 -14.5q-18 0 -72 26q-87 43 -102 103q-10 37 -10 78q0 219 4 262h21q8 -9 43 -27q13 -7 9 -32q0 9 -4 -47q-4 -51 -2 -83q6 -95 8 -105q13 -74 61 -113q5 -4 36.5 -13.5t38.5 -9.5q4 0 17 3.5t18 3.5
q119 0 119 292q0 100 -17 196q-2 8 -12 27t-10 24q0 18 19 18q4 0 17 -4t18 -4t12.5 2t11.5 2q15 0 19 -17q1 -3 4 -90q4 -103 4 -148zM463 455q0 48 -11 103q-1 17 -2 35q-4 22 -22 24q29 -107 25 -275q10 88 10 113zM131 148q-30 46 -30 168q0 16 1 45v43q0 37 -3 57
q-2 15 -13 15q-3 -24 -3 -64q0 -28 1.5 -64.5t1.5 -34.5q0 -9 -1 -31.5t-1 -35.5q0 -80 47 -98z" />
    <glyph glyph-name="v" unicode="v" horiz-adv-x="561" 
d="M554 514q0 -6 -40 -66q-51 -77 -61 -93q-25 -50 -77 -149q-30 -44 -87 -131h-50q-17 60 -58 178q-156 386 -156 405q0 21 16 21q6 0 6 -2.5t6 -2.5q4 0 14 9.5t16 9.5q7 0 22.5 -21t19.5 -37q64 -224 158 -476q42 59 105.5 168.5t102.5 192.5q9 20 33 20q10 0 20 -8
t10 -18zM201 295q-22 74 -81 239q-14 36 -40 98q13 -60 55 -193q20 -54 66 -144z" />
    <glyph glyph-name="w" unicode="w" horiz-adv-x="590" 
d="M577 596q2 -19 -2 -57q-26 -95 -50 -248q-22 -143 -55 -248q-34 -18 -66 -26q-6 3 -15 11q-6 74 -41 305l-8 9q-32 -82 -64 -163q-50 -127 -64 -127q-6 0 -4.5 2.5t-5.5 2.5q-4 0 -12.5 -7.5t-14.5 -7.5q-24 0 -26 27q-15 150 -29 230q-3 20 -31 150q-7 38 -24 110
q-3 14 -22 64q-16 42 -16 49q0 20 23 20q6 0 32 -12.5t33 -12.5q5 0 9.5 2.5t12.5 2.5q28 0 31 -27q21 -149 57 -453q27 59 54 119q33 83 29 130q1 0 9.5 3t14.5 3q15 0 40 -29q21 -25 23 -33q-2 -12 -1 -40q6 -49 46 -148q15 41 31 198q13 135 13 230q12 17 23 17
q6 0 70 -46zM542 567q0 7 -7 10q-10 4 -11 5q-7 -37 -16.5 -127.5t-9.5 -119.5q3 25 24 128q20 99 20 104zM435 110q2 18 -9 41q-6 12 -23 28l20 -96q5 8 12 27zM190 134q-18 208 -18 210q-13 135 -32 246q-3 18 -16 30t-25 11h-16q29 -90 58 -256q32 -180 49 -241z" />
    <glyph glyph-name="x" unicode="x" horiz-adv-x="411" 
d="M402 157q-36 -26 -30 -42h-28q-24 57 -47 114q-31 71 -60 115q-27 -38 -47 -82q-42 -90 -78 -155q-9 -12 -26 -40q-2 -12 -12 -35q-14 -18 -29 -18q-6 0 -10.5 2.5t-7.5 2.5q0 4 -4.5 14.5t-4.5 16.5q0 4 13.5 19t18.5 23q160 300 160 304l-37 83q-17 39 -65 118l-45 72
q0 17 30 17q42 0 78 -18q6 -3 10 -17q3 -10 7 -20.5t29 -81.5q13 -37 37 -72q21 20 41.5 59.5t19.5 60.5q7 10 20 10q58 0 58 -29q0 -5 -36 -54q-48 -64 -57 -79q-5 -7 -24 -17v-12q5 -8 11 -24q5 -32 39 -89q49 -85 51 -90q10 -19 25 -56zM239 440q0 6 -16 31
q-20 31 -25 43q-12 40 -45 113q-10 16 -39 25q40 -79 118 -229q7 7 7 17zM271 344q-2 8 -6 26.5t-6 27.5q-12 0 -12 -12q0 -6 24 -42zM362 174q-4 16 -18 51t-57 87q12 -31 47 -98q9 -15 28 -40z" />
    <glyph glyph-name="y" unicode="y" horiz-adv-x="391" 
d="M382 635q0 -10 -5 -24q0 -6 -16 -27q-20 -27 -23 -33q-29 -62 -89 -182q-24 -37 -67 -116q-41 -88 -130 -266q-5 -2 -15 -2q-11 0 -27 16.5t-16 28.5q0 1 101 167.5t101 167.5q0 9 -54 62q-63 63 -70 73q-17 25 -33 50q-24 35 -49 50q-3 16 0 24q3 13 21 18q23 6 29 11
q7 10 27 27q17 -10 32 -41q24 -50 27 -56q47 -74 107 -150q31 62 62 123q50 99 62 99q13 0 19 -5t6 -15zM185 437q-9 28 -54 88l-70 90q0 -2 -6.5 -3.5t-6.5 -5.5q0 -10 63.5 -88.5t73.5 -80.5z" />
    <glyph glyph-name="z" unicode="z" horiz-adv-x="544" 
d="M529 350q0 -20 -16 -27q-9 -2 -25 -10q-13 -14 -41 -38q-170 -113 -195 -131q-124 -92 -197 -185q4 -2 63 -2q5 0 66 7.5t66 7.5q34 0 101 -9q20 -3 38 -15q0 5 3 -22q2 -15 -4 -24q-11 -18 -23 -18q6 0 -60 14t-122 14q-35 0 -84 -8q-78 -13 -82.5 -13.5t-19.5 -7.5
t-20 -7q-8 0 -11 5q-1 4 0 10q1 9 1 6q-2 8 -4 25q-2 27 1 30q184 163 291 251q56 42 164 132q-50 -2 -109 -5h-64q0 4 -2 16.5t-2 17.5q0 40 17 41q23 1 171 1l15.5 2.5t27.5 2.5q30 0 42 -14q14 -17 14 -47zM456 372q-11 0 -32.5 3t-24 3t-18 1.5t-27.5 1.5q-16 -1 -28 -4
q-27 -8 -32 -14q59 3 162 9zM349 -69q-36 8 -114 7q43 -7 112 -15z" />
    <glyph glyph-name="braceleft" unicode="{" 
d="M260 646q-56 0 -109 -138q-44 -118 -44 -185q0 -56 16 -121q26 -104 78 -104q-2 -1 -2 -3q0 -3 5.5 -16t5.5 -17q0 -3 -2 -3q-34 0 -82 30q-54 33 -66 74q-15 45 -16 82q2 -40 2 66q0 118 19 184q28 95 112 177q7 8 23 10q12 1 32 0l27 -1zM213 656q-51 -23 -92 -106
q-38 -78 -51 -173q-9 -67 0 -125q10 -59 11 -63q8 -32 27 -52q-26 81 -26 179q0 86 39.5 190.5t91.5 149.5z" />
    <glyph glyph-name="bar" unicode="|" horiz-adv-x="189" 
d="M164 679q0 -1 -3 -12q-2 -9 0 -12q-11 -16 -14 -50t-7 -69q-5 -38 -9 -117q0 -16 -14 -140q-11 -104 -8 -140q2 -17 4 -33q0 -19 -11 -32t-40 -13q-23 0 -23 19q0 13 13 182q15 187 23 247q4 20 11 59q5 45 9 90q5 50 15 50q5 0 12 -8t10 -9l14 -2q11 -1 18 -10zM121 642
q-46 -368 -46 -488q0 -31 2 -59q1 38 7 123q7 53 18 145q13 138 19 279z" />
    <glyph glyph-name="braceright" unicode="}" 
d="M260 429q0 -118 -20 -183q-28 -95 -111 -178q-8 -7 -24 -9q-12 -2 -31 -1q-28 1 -27 1l-1 36q56 0 108 138q44 118 44 185q0 56 -16 121q-25 104 -78 104q2 0 2 2q0 4 -5 17t-5 16t2 3q33 0 81 -29q54 -34 67 -74q14 -45 15 -82q-1 40 -1 -67zM235 363q9 69 0 125
q-5 32 -11.5 63.5t-25.5 52.5q25 -81 25 -179q0 -86 -39.5 -191t-91.5 -149q51 23 92 106q38 77 51 172z" />
    <glyph glyph-name="asciitilde" unicode="~" horiz-adv-x="587" 
d="M576 428q0 -7 -7 -35q-6 -32 -7 -43q-6 -6 -28 -15t-32 -9l-43 31q-46 33 -68 40q-59 19 -152 19q-39 0 -79 -29q-26 -19 -57 -54q-25 -30 -27 -30q-9 0 -23 23.5t-14 31.5v23q3 2 14.5 -2.5t18.5 -4.5q6 0 11 3t12 14q-10 5 -38 3q0 2 -3 14t-3 19q69 35 139 70
q49 21 117 21q45 0 96.5 -39.5t78.5 -39.5q7 0 34 8.5t34 8.5q26 0 26 -28zM524 413l-69 -3q9 -7 31 -18q24 -7 29 -3q8 5 9 24zM372 441q-31 23 -48 28q-11 4 -37 4q-8 0 -39 -8q-42 -11 -51 -12q55 0 175 -12z" />
    <glyph glyph-name="exclamdown" unicode="&#xa1;" horiz-adv-x="167" 
d="M33 1q-3 10 -1 21q3 10 5 20q2 16 7 59q18 142 26 268q11 176 14 206q0 20 1 60q1 19 9 26.5t34 7.5q6 0 13 -9.5t7 -16.5q0 -5 -6 -20.5t-6 -20.5v-150q0 9 -8.5 -101t-8.5 -178q0 -22 4 -176q-7 -9 -21 -9q-19 0 -25 4q-18 -18 -27 -16q-10 2 -17 25zM69 744
q0 13 18 32.5t31 19.5q12 0 25 -12.5t13 -21.5q0 -29 -11.5 -39t-42.5 -10q-33 0 -33 31zM73 110v-74h19q6 193 9 405q-28 -357 -28 -331z" />
    <glyph glyph-name="cent" unicode="&#xa2;" horiz-adv-x="596" 
d="M567 604q0 -11 -13 -38t-22 -27q-20 0 -62.5 10.5t-65.5 10.5q-48 0 -68 -13t-42 -59l60 -6q33 -3 65 -5q39 -3 63 -10q12 -4 12 -9t-7.5 -12t-8.5 -9t-2 -16q-1 -10 -10 -17q-1 0 -12 3q-8 3 -13 0q-14 10 -69 17q-44 5 -73 5q-3 0 -27 -1l-9 -34q55 -5 110 -9
q87 -9 87 -25q0 -5 -8 -12t-9 -9t-2 -16q-1 -10 -10 -17q-1 0 -12 3q-8 3 -12 0q-17 11 -71 16q-40 2 -79 4q7 -77 63 -102q35 -15 123 -15q21 0 21 -42q0 -10 -7.5 -21.5t-17.5 -11.5q-84 0 -156 58t-95 139q-12 0 -36.5 -2.5t-36.5 -2.5q-41 0 -41 51q0 24 52 24
q15 0 36 -2q13 -1 25 -3l8 32l-27 1q-14 1 -39 -2q-28 -4 -39 -4q-44 0 -44 51q0 23 19 23q55 0 146 -6q26 65 97 117.5t139 52.5q28 0 71 -17q49 -21 49 -43zM530 604q-38 27 -81 27q-64 0 -120 -41q-52 -38 -81 -98l7 -1q52 106 136 106q24 0 67 -6q49 -8 67 -10zM428 447
q-48 6 -144 17l-5 -15q32 -3 54 -3q10 0 48 1q29 1 47 0zM244 467h-6l-5 -14h5zM394 349q-69 17 -136 19l-1 -14q45 -1 137 -5zM231 428h-4q-3 -15 -5 -31h2q2 15 7 31zM203 468q-20 0 -123 -6q72 -3 120 -7zM182 360v8l-74 -4z" />
    <glyph glyph-name="currency" unicode="&#xa4;" horiz-adv-x="596" 
d="M567 604q0 -11 -13 -38t-22 -27q-20 0 -62.5 10.5t-65.5 10.5q-48 0 -68 -13t-42 -59l60 -6q33 -3 65 -5q39 -3 63 -10q12 -4 12 -9t-7.5 -12t-8.5 -9t-2 -16q-1 -10 -10 -17q-1 0 -12 3q-8 3 -13 0q-14 10 -69 17q-44 5 -73 5q-3 0 -27 -1l-9 -34q55 -5 110 -9
q87 -9 87 -25q0 -5 -8 -12t-9 -9t-2 -16q-1 -10 -10 -17q-1 0 -12 3q-8 3 -12 0q-17 11 -71 16q-40 2 -79 4q7 -77 63 -102q35 -15 123 -15q21 0 21 -42q0 -10 -7.5 -21.5t-17.5 -11.5q-84 0 -156 58t-95 139q-12 0 -36.5 -2.5t-36.5 -2.5q-41 0 -41 51q0 24 52 24
q15 0 36 -2q13 -1 25 -3l8 32l-27 1q-14 1 -39 -2q-28 -4 -39 -4q-44 0 -44 51q0 23 19 23q55 0 146 -6q26 65 97 117.5t139 52.5q28 0 71 -17q49 -21 49 -43zM530 604q-38 27 -81 27q-64 0 -120 -41q-52 -38 -81 -98l7 -1q52 106 136 106q24 0 67 -6q49 -8 67 -10zM428 447
q-48 6 -144 17l-5 -15q32 -3 54 -3q10 0 48 1q29 1 47 0zM244 467h-6l-5 -14h5zM394 349q-69 17 -136 19l-1 -14q45 -1 137 -5zM231 428h-4q-3 -15 -5 -31h2q2 15 7 31zM203 468q-20 0 -123 -6q72 -3 120 -7zM182 360v8l-74 -4z" />
    <glyph glyph-name="brokenbar" unicode="&#xa6;" horiz-adv-x="189" 
d="M164 679q0 -1 -3 -12q-2 -9 0 -12q-11 -16 -14 -50t-7 -69q-5 -38 -9 -117q0 -16 -14 -140q-11 -104 -8 -140q2 -17 4 -33q0 -19 -11 -32t-40 -13q-23 0 -23 19q0 13 13 182q15 187 23 247q4 20 11 59q5 45 9 90q5 50 15 50q5 0 12 -8t10 -9l14 -2q11 -1 18 -10zM121 642
q-46 -368 -46 -488q0 -31 2 -59q1 38 7 123q7 53 18 145q13 138 19 279z" />
    <glyph glyph-name="section" unicode="&#xa7;" horiz-adv-x="602" 
d="M504 637q-9 -6 -28 -17q6 -6 14 -20v-15l-10 -4q-5 0 -13 7t-13 7q-6 0 -15.5 -14t-15.5 -14q-18 0 -12 29q-7 4 -31 3l-3 23q14 3 41 13q-11 23 -11 24q7 12 12 15q5 -2 17 -15t18 -13q5 0 14 5.5t14 5.5h18q4 -13 4 -20zM300 550q-7 -2 -19 -4q-11 35 -38 35
q-17 0 -22.5 -5t-7.5 -22l-14 -4l-16 45q21 19 31 59q7 34 15 68h18l53 -146v-26zM584 260q0 -6 -2 -15.5t-2 -14.5l-15 -5q-15 0 -44 10.5t-45 10.5q-7 0 -21 -3.5t-22 -3.5q-5 0 -22 4v23q32 21 65 82q25 48 49 96q-15 -1 -39 0q-29 1 -39 1q-9 0 -26 -4.5t-26 -4.5
q-11 5 -15 11v12l57 25q22 0 62 -5q44 -6 63 -7l8 -17q-35 -55 -101 -165q4 -2 66 -11q49 -7 49 -19zM135 652q-1 -6 -19.5 -19.5t-18.5 -18.5t5.5 -10.5t11.5 -9.5v-16l-12 -4q-5 0 -11.5 7t-11.5 7t-12.5 -8.5t-13.5 -9.5q-39 36 -39 44q0 10 14 10.5t16 6.5q1 6 -1 16.5
t-2 13.5q0 13 11 13q6 0 16.5 -14t16.5 -14q5 0 30 18h12zM535 173q-11 -26 -17 -37q-14 -26 -23 -31q0 28 13 82h23zM366 287q0 -27 -40 -36l-62 -12h-22q-3 12 -4 20q4 2 24 6q11 2 11 21q0 11 -6 29h-9v-41l-11 -4l-15 12q0 36 -5 107q-1 7 -8 33q-5 21 -5 34q45 7 66 7
q24 0 51 -12q32 -16 32 -38q0 -29 -45 -72q48 -33 48 -54zM514 43h-5h-4q-2 0 -18 4l4 22h16l7 -7v-19zM445 157h-3q-10 -2 -29 -1q-6 -5 -6 -19q0 -12 3.5 -36.5t3.5 -36.5l-8 -5q-10 0 -19 45q-6 28 -11 56l-17 -4q-18 0 -24 11v13q12 7 36 7q40 0 74 -11v-19zM197 368
q0 -22 -32 -67t-53 -45q-46 0 -42 1q-7 29 -7 78q0 61 -2 78q-1 7 -7 22t-6 23q0 6 10 14.5t16 8.5q25 0 74 -44t49 -69zM339 85q0 -26 -18 -26q-5 0 -60 28l-3 -31h-16q-7 19 -10 48l-4 48h20q8 -16 17 -32q12 -19 28 -19q14 0 14 16q0 13 -14 34q15 15 18 15q15 0 18 -46
l8 -13q2 -19 2 -22zM207 111q0 -13 -14 -25.5t-27 -12.5q-12 0 -24 24q0 12 9.5 30.5t19.5 18.5t23 -12.5t13 -22.5zM143 179l-2 -12q-28 -1 -55 -20v-16q13 -4 38 -14v-12l-12 1q-16 0 -20 -24q-6 -35 -7 -36q-12 4 -20 23q-6 16 -6 31v73q45 17 57 17h25zM262 606l-22 68
q-7 -41 -15 -65q13 -3 37 -3zM338 415v3q-14 10 -51 17q-4 -25 -4 -41q0 -7 2 -18q2 -14 2 -19q19 2 35.5 21t15.5 37zM263 347l-10 85h-5l10 -85h5zM342 293q0 7 -9.5 16t-17.5 9h-18v-38l4 -10h12q29 15 29 23zM155 363q0 15 -11.5 27.5t-25.5 13.5l11 -96q26 36 26 55z
M109 280l-15 142l-11 -3l8 -139h18zM181 110l-5 1l-5 -8l5 -2z" />
    <glyph glyph-name="copyright" unicode="&#xa9;" horiz-adv-x="743" 
d="M599 604q0 -13 -13.5 -39t-21.5 -26q-4 0 -36 8q-36 9 -51 12q-11 1 -75 1q-49 0 -86 -96q-28 -74 -28 -113q0 -144 162 -144q5 0 13 2.5t12 2.5q21 0 21 -42q0 -13 -9 -23t-16 -10q-27 0 -69 14q-11 3 -44 19q-37 18 -48 26q-38 29 -67.5 82.5t-29.5 92.5q0 5 8 36
q9 38 12 52q15 85 100 148q76 57 146 57q26 0 69 -17q51 -20 51 -43zM562 604q-38 27 -81 27q-95 0 -163.5 -80.5t-64.5 -189.5q-3 63 39 141q52 95 131 95q2 0 48 -6q50 -7 86 -10q0 18 5 23zM723 544q0 -112 -47 -256q-55 -166 -140 -250q-7 -7 -23 -9q-12 -2 -32 -1
l-27 2l-1 35q39 0 92 107q43 87 82 212q35 113 35 149q0 56 -16 121q-26 104 -78 104q2 0 2 2q0 3 -5.5 16.5t-5.5 16.5t2 3q34 0 82 -29q54 -34 66 -74q14 -45 16 -82q-2 40 -2 -67zM309 786q-56 0 -134 -204q-71 -184 -71 -251q0 -56 16 -121q26 -104 78 -104q-1 -1 -1 -3
q0 -3 5 -16t5 -17q0 -2 -2 -2q-34 0 -81 29q-54 33 -67 74q-14 45 -15 82q1 -40 1 66q0 113 45 250q53 160 137 243q8 7 24 10q12 1 31 0l28 -1zM698 603q-5 32 -11.5 64t-25.5 52q26 -81 26 -179q0 -86 -67.5 -263t-119.5 -222q45 20 70 66q20 48 41 95q92 203 92 337
q0 28 -5 50zM262 795q-55 -24 -117 -150q-65 -132 -77 -260q-8 -77 0 -124q9 -60 10 -64q8 -32 27 -52q-26 81 -26 179q0 86 65.5 256.5t117.5 214.5z" />
    <glyph glyph-name="registered" unicode="&#xae;" horiz-adv-x="812" 
d="M613 627q0 -31 -43.5 -81.5t-81.5 -68.5q3 -16 57 -120q52 -100 52 -123q0 -10 -16.5 -36t-21.5 -26q-16 0 -41 72q-22 67 -45 134q-28 73 -53 73q-8 0 -55 -20q-8 -241 3 -303q-5 -5 -34.5 -13.5t-38.5 -8.5q-16 0 -18 20q0 17 26 294q5 42 14 112q8 79 11 175
q18 14 40 14q5 0 11.5 -6.5t11.5 -6.5t16.5 4t16.5 4q35 0 105 -26q84 -30 84 -63zM580 623q0 8 -11 19q-2 -11 -6.5 -33.5t-6.5 -33.5q24 32 24 48zM534 625q0 23 -30.5 38.5t-60.5 15.5q-4 0 -27.5 -2.5t-34.5 -2.5q2 -50 -7 -91q-10 -44 -10 -77v-26h15q63 14 105 48
q50 40 50 97zM563 226v24q0 12 -24 61q-23 44 -33 56v-14q-1 -7 20 -54t37 -73zM338 144l-5 6q-4 44 -4 88q0 38 4 105t4 103q-23 -196 -23 -210v-92h24zM794 543q0 -112 -47 -256q-55 -166 -140 -250q-7 -7 -24 -9q-11 -2 -31 -1l-27 1l-1 36q39 0 92 107q43 87 82 212
q35 113 35 148q0 57 -16 122q-26 104 -78 104q2 0 2 2q0 3 -5.5 16t-5.5 17q0 3 2 3q34 0 81 -30q54 -33 67 -74q14 -45 16 -81q-2 40 -2 -67zM323 786q-56 0 -134 -204q-70 -184 -70 -251q0 -56 16 -121q25 -104 78 -104q-2 -1 -2 -3q0 -3 5 -16t5 -17q0 -2 -2 -2
q-33 0 -81 29q-54 33 -67 74q-14 45 -15 82q1 -40 1 66q0 113 45 250q53 160 138 243q7 7 24 10q11 1 31 0l27 -1zM769 602q-5 32 -11.5 64t-25.5 51q26 -80 26 -178q0 -87 -68 -264t-119 -221q45 20 70 66q20 48 41 95q92 203 92 337q0 28 -5 50zM276 795
q-55 -24 -117 -150q-65 -132 -77 -260q-7 -77 0 -124q10 -60 10 -64q8 -32 27 -52q-25 81 -25 179q0 86 65.5 256.5t116.5 214.5z" />
    <glyph glyph-name="degree" unicode="&#xb0;" horiz-adv-x="164" 
d="M139 697q0 -23 -16.5 -39.5t-39.5 -16.5q-33 0 -33 29q0 27 17 43q15 13 47 13q25 0 25 -29z" />
    <glyph glyph-name="plusminus" unicode="&#xb1;" horiz-adv-x="553" 
d="M541 48q0 -4 -7.5 -11.5t-9.5 -10.5q-1 -7 -1 -14q-2 -11 -10 -18q-2 0 -13 3q-8 3 -12 0q-16 11 -50 14t-69 7q-24 3 -82 6q-18 1 -78 6q-50 4 -80 4q-20 0 -37 -2t-33 -3q-20 -1 -31 9q-15 12 -15 42q0 22 19 22q27 0 123 -5q128 -6 187 -14q20 -4 59 -11q45 -4 90 -9
q50 -5 50 -15zM475 38q-242 29 -332 29q-43 0 -95 -3q38 -1 123 -7q10 0 60 -4q110 -10 244 -15zM549 467q0 -4 -7.5 -11.5t-9.5 -10.5q-1 -7 -1 -14q-2 -11 -10 -18q-2 0 -13 3q-8 3 -12 0q-16 11 -50 14t-69 7q-27 4 -59 5q-9 -120 -5 -158q1 -16 3 -33q0 -19 -9 -31
q-13 -14 -42 -14q-23 0 -23 19q0 75 11 221q-114 9 -154 5q-16 -2 -32 -3q-20 -1 -31 9q-15 12 -15 42q0 22 19 22q74 0 218 -10q2 13 3 24q5 20 12 59l8 90q6 50 15 50q5 0 12 -8t10 -9q7 -1 16.5 -2t15.5 -10q0 -1 -3 -12q-2 -9 1 -12q-11 -16 -14.5 -50t-6.5 -69
q-4 -27 -5 -56q16 -2 28 -4q20 -4 59 -11q45 -4 90 -9q50 -5 50 -15zM307 668l-19 -159l11 -1q5 68 8 160zM483 457q-59 7 -163 19v-11q69 -5 163 -8zM255 482q-93 7 -199 1q38 -1 123 -7q10 0 60 -4l16 -1v11zM293 443l-11 1q-8 -96 -2 -203q2 37 7 122q1 11 5 61z" />
    <glyph glyph-name="twosuperior" unicode="&#xb2;" horiz-adv-x="282" 
d="M255 697q0 -22 -15 -49q-12 -21 -20 -28q-20 -16 -61 -47l-20 -8q-14 -6 -20 -16q2 0 7 -1.5t9 -1.5q39 0 34 0q36 -5 59 -4q4 -1 8 -6q-1 -5 -2 -9.5t-0.5 -10t-8.5 -5.5q-8 0 -33 6q-48 11 -99 11q-2 0 -12 -4t-12 -4q-6 0 -10.5 13t-3.5 18q36 14 98 43q19 12 44 48
q9 14 9 44q0 24 -8 42q-10 24 -28 21q-5 -1 -20 -10q-44 -27 -58 -93q-2 -5 -9 -5q-3 0 -10.5 6t-10.5 6q1 0 -12 -12h-7l-2.5 4t-2.5 7t13 17q17 18 23 26q21 32 32 44q19 20 44.5 30t38.5 10q43 -2 61 -46q5 -13 5 -36zM238 697q0 46 -45 62q10 -7 23 -26q7 -38 7 -48
q0 1 -9 -46q24 42 24 58zM95 700q-8 -11 -23 -31q3 -3 8 -3q2 6 7.5 17.5t7.5 16.5z" />
    <glyph glyph-name="threesuperior" unicode="&#xb3;" horiz-adv-x="293" 
d="M272 705q0 -38 -16 -62q-27 -34 -54 -67q27 -17 35 -37q7 -16 7 -47q0 -2 -16 -32q-3 -8 -13 -25q-23 -24 -58 -48q-43 -31 -68 -31h-16q-1 0 -22 9q1 14 1 27q2 17 16 17q3 0 6.5 -2.5t7.5 -2.5q13 0 41 10t41 18q24 16 24 67q0 39 -25 39q2 0 -41 -17q-21 28 -21 34
q0 3 2 5.5t2 4.5q28 -3 73.5 31t45.5 69q0 61 -38 94q-35 30 -89 30q-3 0 -19 -4t-18 -4q-17 0 -17 31q0 22 12 22q6 0 12 -11l86 -6q55 -6 85 -21q22 -11 27 -36q7 -31 7 -55zM252 703q0 10 -5.5 36.5t-9.5 29.5q-27 20 -45 20h-10q35 -17 50 -58q7 -30 13 -59q7 23 7 31z
M180 558q-8 8 -12 8q-3 0 -11 -8h23zM222 506q0 33 -20 40q10 -39 4 -84q4 14 11 20q5 3 5 24zM124 392q-16 -3 -45 -9q24 -1 36 2q3 2 9 7z" />
    <glyph glyph-name="questiondown" unicode="&#xbf;" horiz-adv-x="548" 
d="M17 137q0 55 17 87q8 14 27 27q28 20 35 26q91 85 256 78q9 66 22 199q0 32 3 95q1 13 13 20q22 13 48 13q24 0 24 -16q0 -2 -17 -63q-19 -69 -25 -100q-22 -115 -17 -181q0 -6 -4.5 -14t-11.5 -8q-5 0 -34.5 8t-34.5 8q-51 0 -101 -21q-31 -12 -70 -54q-35 -39 -35 -140
q0 -22 8 -36.5t54.5 -41t68.5 -26.5q70 0 181 60q14 8 32.5 33.5t14.5 42.5q6 10 19 10q11 0 22 -24q9 -18 9 -24q0 -5 -2 -10t-2 -9q-15 0 -35 -16q-31 -25 -33 -26q-39 -23 -119 -47q-86 -26 -136 -26q-54 0 -117 68q-60 64 -60 108zM395 757q0 18 17 38.5t28 20.5
q17 0 23 -19q3 -20 7 -39q-4 -4 -26 -10.5t-27 -6.5q-22 0 -22 16zM45 139q0 -14 11 -39t27 -36q-1 8 -4 39q-3 24 -3 39q0 22 5 39q7 24 28 53l30 38q-55 -34 -74.5 -63.5t-19.5 -69.5zM405 582q5 22 24 61h-20z" />
    <glyph glyph-name="Ntilde" unicode="&#xd1;" horiz-adv-x="605" 
d="M568 743q0 -7 -6 -35q-7 -32 -8 -43q-6 -6 -27.5 -15t-32.5 -9l-44 32t-67 39q-58 19 -151 19q-39 0 -79 -29q-27 -19 -57 -54q-25 -30 -28 -30q-9 0 -23 23.5t-14 31.5v23q3 2 15 -2.5t18 -4.5t11 3t13 14q-10 5 -39 4q0 2 -3 13.5t-3 18.5q70 35 139 70q49 21 118 21
q44 0 96 -39.5t79 -39.5q6 0 33 8.5t35 8.5q25 0 25 -28zM580 614q0 -5 -19 -47q-21 -46 -26 -66q-74 -316 -100 -469q-1 -6 -10 -17t-19 -11q-1 0 -16 7t-59 11q-18 39 -51 135q-51 149 -56 164q-7 0 -8 -3t-3 -6q-13 -59 -28 -157q-5 -33 -25 -109q-21 -85 -28 -121
q-6 -51 -19 -159q-14 -11 -43 -11q-41 0 -41 22q0 3 36 206q41 236 62 371q11 73 26 98q4 8 17 20t19 12t21 -5t20 -5q7 0 31 5t30 5q5 0 14.5 -13.5t10.5 -19.5q15 -212 54 -310l7 -4q11 70 43 197q16 45 26 138q9 86 23 116q23 49 80 49q10 0 20.5 -7t10.5 -16zM516 728
l-69 -3q9 -7 31 -18q24 -7 30 -3q7 5 8 24zM364 756q-30 23 -47 28q-12 4 -37 4q-8 0 -40 -8q-42 -10 -51 -12q55 0 175 -12zM523 586l-15 -12l-75 -389zM302 227q-9 63 -18 127q-13 84 -23 84q-6 0 -23.5 -4.5t-24.5 -4.5q34 -33 55 -98zM183 361h-8l-56 -305h8zM122 36v19
h-9v-19h9zM117 10v24h-9v-24h9z" />
    <glyph glyph-name="germandbls" unicode="&#xdf;" horiz-adv-x="391" 
d="M371 557q0 -134 -128 -231q22 -18 43 -36q33 -31 33 -53q0 -10 -7 -39q-8 -35 -18.5 -49.5t-51 -35t-59.5 -20.5q-6 0 -18 11t-12 17q0 20 16 20q4 0 5 -1.5t5 -1.5q25 0 62 24q44 28 44 61q0 24 -34 57.5t-60 33.5q-4 0 -5.5 -1.5t-6.5 -1.5q-10 0 -22 11v16q13 6 80 46
q26 15 66.5 74t40.5 85q0 24 -48 46q-40 19 -63 19q-53 0 -70 -13q-10 -8 -16 -54q-5 -40 -26 -194q-6 -33 -17 -100q-16 -104 -21 -173q-2 -1 -14.5 -8.5t-17.5 -7.5q-19 0 -19 18q0 -2 8.5 33.5t11.5 75.5q4 22 10 69q11 88 23 177q13 112 11 177q49 32 54 32q4 0 23 -3.5
t24 -3.5q3 0 20 1.5t21 1.5q26 0 75 -23q58 -27 58 -56zM134 594q-11 -4 -14 -27q-1 -18 -3 -36q-8 -55 -23 -153q-2 -64 -8 -150q18 128 48 366z" />
    <glyph glyph-name="endash" unicode="&#x2013;" horiz-adv-x="584" 
d="M561 380q0 -4 -7.5 -11.5t-9.5 -10.5q-1 -7 -1 -14q-2 -11 -10 -18q-2 0 -13 3q-8 3 -12 0q-16 11 -50 14t-69 7q-24 3 -82 6q-18 1 -78 6q-50 4 -80 4q-20 0 -37 -2t-33 -3q-20 -1 -31 9q-15 12 -15 42q0 22 19 22q27 0 123 -5q128 -6 187 -14q20 -4 59 -11q45 -4 90 -9
q50 -5 50 -15zM495 370q-242 29 -332 29q-43 0 -95 -3q38 -1 123 -7q10 0 60 -4q110 -10 244 -15z" />
    <glyph glyph-name="emdash" unicode="&#x2014;" horiz-adv-x="584" 
d="M561 380q0 -4 -7.5 -11.5t-9.5 -10.5q-1 -7 -1 -14q-2 -11 -10 -18q-2 0 -13 3q-8 3 -12 0q-16 11 -50 14t-69 7q-24 3 -82 6q-18 1 -78 6q-50 4 -80 4q-20 0 -37 -2t-33 -3q-20 -1 -31 9q-15 12 -15 42q0 22 19 22q27 0 123 -5q128 -6 187 -14q20 -4 59 -11q45 -4 90 -9
q50 -5 50 -15zM495 370q-242 29 -332 29q-43 0 -95 -3q38 -1 123 -7q10 0 60 -4q110 -10 244 -15z" />
    <glyph glyph-name="afii00208" unicode="&#x2015;" horiz-adv-x="677" 
d="M659 362q0 -23 -19 -23q-13 0 -182 13q-187 15 -247 23q-20 4 -59 11q-45 5 -90 9q-50 5 -50 15q0 4 7.5 11.5t9.5 10.5l2 14q1 11 10 18q1 0 12 -3q8 -2 12 0q16 -11 50 -14t70.5 -7.5t115.5 -8.5q15 0 140 -14q104 -11 140 -8q17 2 33 4q19 0 32 -11t13 -40zM625 377
q-38 1 -123 7q-53 7 -145 18q-138 13 -279 19q368 -46 488 -46q31 0 59 2z" />
    <glyph glyph-name="quoteleft" unicode="&#x2018;" horiz-adv-x="184" 
d="M43 702q0 11 22.5 34t30.5 23q16 0 16 -23q0 -8 -2 -24t-2 -21q0 -7 1.5 -9t29.5 -12q17 -7 17 -30q0 -15 -23 -32t-37 -17t-19 8q-10 22 -22 59t-12 44zM91 641q5 -10 16 -21q24 12 24 22q0 5 -2.5 7t-2.5 4q-34 -12 -35 -12zM66 713l5 -46l10 19l5 35z" />
    <glyph glyph-name="quoteright" unicode="&#x2019;" horiz-adv-x="184" 
d="M169 637q0 -11 -22.5 -34t-30.5 -23q-16 0 -16 23q0 8 2 24t2 21q0 7 -1.5 9t-29.5 12q-18 7 -18 30q0 15 23.5 32t37.5 17t18 -8q11 -22 23 -59t12 -44zM121 698q-5 10 -16 21q-24 -12 -24 -22q0 -5 2 -7t2 -3q35 11 36 11zM146 626l-6 46l-9 -19l-5 -35z" />
    <glyph glyph-name="quotedblleft" unicode="&#x201c;" 
d="M18 702q0 11 22.5 34t30.5 23q16 0 16 -23q0 -8 -2 -24t-2 -21q0 -7 1.5 -9t29.5 -12q18 -7 18 -30q0 -15 -23.5 -32t-37.5 -17t-18 8q-11 22 -23 59t-12 44zM156 705q0 10 22.5 33t30.5 23q16 0 16 -22q0 -8 -2 -24t-2 -22t1.5 -8t29.5 -13q17 -6 17 -29q0 -16 -23 -33
t-37 -17t-18 9q-11 21 -23 58t-12 45zM66 641q5 -10 16 -21q24 12 24 22q0 5 -2 7t-2 4q-35 -12 -36 -12zM41 713l6 -46l9 19l5 35zM204 644q5 -11 16 -21q24 12 24 21q0 6 -2.5 8t-2.5 3q-34 -11 -35 -11zM179 715l5 -46l10 20l5 35z" />
    <glyph glyph-name="quotedblright" unicode="&#x201d;" 
d="M268 648q0 -10 -22.5 -33t-30.5 -23q-16 0 -16 23q0 7 2.5 23t2.5 22q0 7 -2 8.5t-29 12.5q-18 6 -18 30q0 15 23 32t37 17q15 0 19 -8q10 -22 22 -59t12 -45zM131 646q0 -11 -23 -34t-30 -23q-16 0 -16 23q0 8 2 24t2 21q0 7 -1.5 9t-29.5 12q-18 7 -18 30q0 15 23.5 32
t37.5 17t18 -8q11 -22 23 -59t12 -44zM221 710q-6 10 -16 21q-24 -12 -24 -22q0 -6 2 -8t2 -3q35 12 36 12zM246 638l-6 46l-10 -20l-4 -35zM83 707q-5 10 -16 21q-24 -12 -24 -22q0 -5 2 -7t2 -3q35 11 36 11zM108 635l-6 46l-9 -19l-5 -35z" />
    <glyph glyph-name="bullet" unicode="&#x2022;" horiz-adv-x="164" 
d="M135 476q0 -23 -16.5 -39.5t-40.5 -16.5q-33 0 -33 29q0 27 16 42t48 15q26 0 26 -30z" />
    <glyph glyph-name="ellipsis" unicode="&#x2026;" horiz-adv-x="472" 
d="M130 102q0 -23 -16.5 -39.5t-40.5 -16.5q-33 0 -33 29q0 27 17 43q15 13 47 13q26 0 26 -29zM441 96q0 -23 -16.5 -39.5t-40.5 -16.5q-33 0 -33 29q0 27 17 43q15 13 47 13q26 0 26 -29zM286 102q0 -23 -16.5 -39.5t-40.5 -16.5q-33 0 -33 29q0 27 17 43q15 13 47 13
q26 0 26 -29z" />
  </font>
</defs>
</svg>
